ISO-10303-21;
HEADER;
/* Generated by software containing ST-Developer
 * from STEP Tools, Inc. (www.steptools.com) 
 */

FILE_DESCRIPTION(
/* description */ (''),
/* implementation_level */ '2;1');

FILE_NAME(
/* name */ 
'I:/My Drive/Projects/3D Models/Rough Pi Model/Rough Pi Model.step',
/* time_stamp */ '2018-07-19T21:49:11-07:00',
/* author */ ('AnsonB'),
/* organization */ (''),
/* preprocessor_version */ 'ST-DEVELOPER v17',
/* originating_system */ 'Autodesk Translation Framework v7.1.0.215',
/* authorisation */ '');

FILE_SCHEMA (('AUTOMOTIVE_DESIGN { 1 0 10303 214 3 1 1 }'));
ENDSEC;

DATA;
#10=MECHANICAL_DESIGN_GEOMETRIC_PRESENTATION_REPRESENTATION('',(#17),#2075);
#11=ITEM_DEFINED_TRANSFORMATION($,$,#1293,#1378);
#12=(
REPRESENTATION_RELATIONSHIP($,$,#2086,#2085)
REPRESENTATION_RELATIONSHIP_WITH_TRANSFORMATION(#11)
SHAPE_REPRESENTATION_RELATIONSHIP()
);
#13=CONTEXT_DEPENDENT_SHAPE_REPRESENTATION(#12,#2084);
#14=NEXT_ASSEMBLY_USAGE_OCCURRENCE('Raspberry Pi Master:1',
'Raspberry Pi Master:1','Raspberry Pi Master:1',#2088,#2089,
'Raspberry Pi Master:1');
#15=SHAPE_REPRESENTATION_RELATIONSHIP('SRR','None',#2086,#16);
#16=ADVANCED_BREP_SHAPE_REPRESENTATION('',(#18),#2074);
#17=STYLED_ITEM('',(#2100),#18);
#18=MANIFOLD_SOLID_BREP('Body1',#1279);
#19=CYLINDRICAL_SURFACE('',#1357,1.375);
#20=CYLINDRICAL_SURFACE('',#1359,1.375);
#21=CYLINDRICAL_SURFACE('',#1361,1.375);
#22=CYLINDRICAL_SURFACE('',#1363,1.375);
#23=CYLINDRICAL_SURFACE('',#1366,3.00000000000001);
#24=CYLINDRICAL_SURFACE('',#1369,3.00000000000002);
#25=CYLINDRICAL_SURFACE('',#1372,3.00000000000002);
#26=CYLINDRICAL_SURFACE('',#1375,3.);
#27=FACE_BOUND('',#142,.T.);
#28=FACE_BOUND('',#143,.T.);
#29=FACE_BOUND('',#144,.T.);
#30=FACE_BOUND('',#145,.T.);
#31=FACE_BOUND('',#146,.T.);
#32=FACE_BOUND('',#147,.T.);
#33=FACE_BOUND('',#193,.T.);
#34=FACE_BOUND('',#194,.T.);
#35=FACE_BOUND('',#195,.T.);
#36=FACE_BOUND('',#196,.T.);
#37=CIRCLE('',#1315,3.00000000000001);
#38=CIRCLE('',#1316,3.);
#39=CIRCLE('',#1317,3.00000000000002);
#40=CIRCLE('',#1318,3.00000000000002);
#41=CIRCLE('',#1319,1.375);
#42=CIRCLE('',#1320,1.375);
#43=CIRCLE('',#1321,1.375);
#44=CIRCLE('',#1322,1.375);
#45=CIRCLE('',#1349,3.);
#46=CIRCLE('',#1356,3.00000000000001);
#47=CIRCLE('',#1358,1.375);
#48=CIRCLE('',#1360,1.375);
#49=CIRCLE('',#1362,1.375);
#50=CIRCLE('',#1364,1.375);
#51=CIRCLE('',#1367,3.00000000000001);
#52=CIRCLE('',#1370,3.00000000000002);
#53=CIRCLE('',#1373,3.00000000000002);
#54=CIRCLE('',#1376,3.);
#55=FACE_OUTER_BOUND('',#121,.T.);
#56=FACE_OUTER_BOUND('',#122,.T.);
#57=FACE_OUTER_BOUND('',#123,.T.);
#58=FACE_OUTER_BOUND('',#124,.T.);
#59=FACE_OUTER_BOUND('',#125,.T.);
#60=FACE_OUTER_BOUND('',#126,.T.);
#61=FACE_OUTER_BOUND('',#127,.T.);
#62=FACE_OUTER_BOUND('',#128,.T.);
#63=FACE_OUTER_BOUND('',#129,.T.);
#64=FACE_OUTER_BOUND('',#130,.T.);
#65=FACE_OUTER_BOUND('',#131,.T.);
#66=FACE_OUTER_BOUND('',#132,.T.);
#67=FACE_OUTER_BOUND('',#133,.T.);
#68=FACE_OUTER_BOUND('',#134,.T.);
#69=FACE_OUTER_BOUND('',#135,.T.);
#70=FACE_OUTER_BOUND('',#136,.T.);
#71=FACE_OUTER_BOUND('',#137,.T.);
#72=FACE_OUTER_BOUND('',#138,.T.);
#73=FACE_OUTER_BOUND('',#139,.T.);
#74=FACE_OUTER_BOUND('',#140,.T.);
#75=FACE_OUTER_BOUND('',#141,.T.);
#76=FACE_OUTER_BOUND('',#148,.T.);
#77=FACE_OUTER_BOUND('',#149,.T.);
#78=FACE_OUTER_BOUND('',#150,.T.);
#79=FACE_OUTER_BOUND('',#151,.T.);
#80=FACE_OUTER_BOUND('',#152,.T.);
#81=FACE_OUTER_BOUND('',#153,.T.);
#82=FACE_OUTER_BOUND('',#154,.T.);
#83=FACE_OUTER_BOUND('',#155,.T.);
#84=FACE_OUTER_BOUND('',#156,.T.);
#85=FACE_OUTER_BOUND('',#157,.T.);
#86=FACE_OUTER_BOUND('',#158,.T.);
#87=FACE_OUTER_BOUND('',#159,.T.);
#88=FACE_OUTER_BOUND('',#160,.T.);
#89=FACE_OUTER_BOUND('',#161,.T.);
#90=FACE_OUTER_BOUND('',#162,.T.);
#91=FACE_OUTER_BOUND('',#163,.T.);
#92=FACE_OUTER_BOUND('',#164,.T.);
#93=FACE_OUTER_BOUND('',#165,.T.);
#94=FACE_OUTER_BOUND('',#166,.T.);
#95=FACE_OUTER_BOUND('',#167,.T.);
#96=FACE_OUTER_BOUND('',#168,.T.);
#97=FACE_OUTER_BOUND('',#169,.T.);
#98=FACE_OUTER_BOUND('',#170,.T.);
#99=FACE_OUTER_BOUND('',#171,.T.);
#100=FACE_OUTER_BOUND('',#172,.T.);
#101=FACE_OUTER_BOUND('',#173,.T.);
#102=FACE_OUTER_BOUND('',#174,.T.);
#103=FACE_OUTER_BOUND('',#175,.T.);
#104=FACE_OUTER_BOUND('',#176,.T.);
#105=FACE_OUTER_BOUND('',#177,.T.);
#106=FACE_OUTER_BOUND('',#178,.T.);
#107=FACE_OUTER_BOUND('',#179,.T.);
#108=FACE_OUTER_BOUND('',#180,.T.);
#109=FACE_OUTER_BOUND('',#181,.T.);
#110=FACE_OUTER_BOUND('',#182,.T.);
#111=FACE_OUTER_BOUND('',#183,.T.);
#112=FACE_OUTER_BOUND('',#184,.T.);
#113=FACE_OUTER_BOUND('',#185,.T.);
#114=FACE_OUTER_BOUND('',#186,.T.);
#115=FACE_OUTER_BOUND('',#187,.T.);
#116=FACE_OUTER_BOUND('',#188,.T.);
#117=FACE_OUTER_BOUND('',#189,.T.);
#118=FACE_OUTER_BOUND('',#190,.T.);
#119=FACE_OUTER_BOUND('',#191,.T.);
#120=FACE_OUTER_BOUND('',#192,.T.);
#121=EDGE_LOOP('',(#803,#804,#805,#806));
#122=EDGE_LOOP('',(#807,#808,#809,#810));
#123=EDGE_LOOP('',(#811,#812,#813,#814));
#124=EDGE_LOOP('',(#815,#816,#817,#818));
#125=EDGE_LOOP('',(#819,#820,#821,#822));
#126=EDGE_LOOP('',(#823,#824,#825,#826));
#127=EDGE_LOOP('',(#827,#828,#829,#830));
#128=EDGE_LOOP('',(#831,#832,#833,#834));
#129=EDGE_LOOP('',(#835,#836,#837,#838));
#130=EDGE_LOOP('',(#839,#840,#841,#842));
#131=EDGE_LOOP('',(#843,#844,#845,#846));
#132=EDGE_LOOP('',(#847,#848,#849,#850,#851));
#133=EDGE_LOOP('',(#852,#853,#854,#855));
#134=EDGE_LOOP('',(#856,#857,#858,#859,#860));
#135=EDGE_LOOP('',(#861,#862,#863,#864));
#136=EDGE_LOOP('',(#865,#866,#867,#868));
#137=EDGE_LOOP('',(#869,#870,#871,#872));
#138=EDGE_LOOP('',(#873,#874,#875,#876));
#139=EDGE_LOOP('',(#877,#878,#879,#880));
#140=EDGE_LOOP('',(#881,#882,#883,#884));
#141=EDGE_LOOP('',(#885,#886,#887,#888,#889,#890,#891,#892,#893,#894,#895,
#896,#897,#898,#899,#900,#901,#902,#903,#904,#905,#906,#907,#908,#909,#910,
#911,#912,#913,#914,#915,#916,#917,#918));
#142=EDGE_LOOP('',(#919,#920,#921,#922));
#143=EDGE_LOOP('',(#923,#924,#925,#926));
#144=EDGE_LOOP('',(#927));
#145=EDGE_LOOP('',(#928));
#146=EDGE_LOOP('',(#929));
#147=EDGE_LOOP('',(#930));
#148=EDGE_LOOP('',(#931,#932,#933,#934));
#149=EDGE_LOOP('',(#935,#936,#937,#938));
#150=EDGE_LOOP('',(#939,#940,#941,#942));
#151=EDGE_LOOP('',(#943,#944,#945,#946));
#152=EDGE_LOOP('',(#947,#948,#949,#950));
#153=EDGE_LOOP('',(#951,#952,#953,#954));
#154=EDGE_LOOP('',(#955,#956,#957,#958));
#155=EDGE_LOOP('',(#959,#960,#961,#962));
#156=EDGE_LOOP('',(#963,#964,#965,#966));
#157=EDGE_LOOP('',(#967,#968,#969,#970,#971));
#158=EDGE_LOOP('',(#972,#973,#974,#975));
#159=EDGE_LOOP('',(#976,#977,#978,#979,#980));
#160=EDGE_LOOP('',(#981,#982,#983,#984));
#161=EDGE_LOOP('',(#985,#986,#987,#988));
#162=EDGE_LOOP('',(#989,#990,#991,#992,#993));
#163=EDGE_LOOP('',(#994,#995,#996,#997));
#164=EDGE_LOOP('',(#998,#999,#1000,#1001,#1002));
#165=EDGE_LOOP('',(#1003,#1004,#1005,#1006));
#166=EDGE_LOOP('',(#1007,#1008,#1009,#1010));
#167=EDGE_LOOP('',(#1011,#1012,#1013,#1014));
#168=EDGE_LOOP('',(#1015,#1016,#1017,#1018,#1019));
#169=EDGE_LOOP('',(#1020,#1021,#1022,#1023));
#170=EDGE_LOOP('',(#1024,#1025,#1026,#1027,#1028));
#171=EDGE_LOOP('',(#1029,#1030,#1031,#1032));
#172=EDGE_LOOP('',(#1033,#1034,#1035,#1036));
#173=EDGE_LOOP('',(#1037,#1038,#1039,#1040,#1041));
#174=EDGE_LOOP('',(#1042,#1043,#1044,#1045));
#175=EDGE_LOOP('',(#1046,#1047,#1048,#1049,#1050));
#176=EDGE_LOOP('',(#1051,#1052,#1053,#1054));
#177=EDGE_LOOP('',(#1055,#1056,#1057,#1058,#1059));
#178=EDGE_LOOP('',(#1060,#1061,#1062,#1063));
#179=EDGE_LOOP('',(#1064,#1065,#1066,#1067,#1068));
#180=EDGE_LOOP('',(#1069,#1070,#1071,#1072));
#181=EDGE_LOOP('',(#1073,#1074,#1075,#1076));
#182=EDGE_LOOP('',(#1077,#1078,#1079,#1080));
#183=EDGE_LOOP('',(#1081,#1082,#1083,#1084));
#184=EDGE_LOOP('',(#1085,#1086,#1087,#1088,#1089,#1090,#1091,#1092));
#185=EDGE_LOOP('',(#1093,#1094,#1095,#1096,#1097));
#186=EDGE_LOOP('',(#1098,#1099,#1100,#1101,#1102,#1103,#1104,#1105,#1106,
#1107,#1108,#1109,#1110,#1111,#1112,#1113,#1114,#1115));
#187=EDGE_LOOP('',(#1116,#1117,#1118,#1119));
#188=EDGE_LOOP('',(#1120,#1121,#1122,#1123,#1124,#1125));
#189=EDGE_LOOP('',(#1126,#1127,#1128,#1129));
#190=EDGE_LOOP('',(#1130,#1131,#1132,#1133));
#191=EDGE_LOOP('',(#1134,#1135,#1136,#1137,#1138));
#192=EDGE_LOOP('',(#1139,#1140,#1141,#1142,#1143,#1144,#1145,#1146,#1147,
#1148,#1149,#1150));
#193=EDGE_LOOP('',(#1151));
#194=EDGE_LOOP('',(#1152));
#195=EDGE_LOOP('',(#1153));
#196=EDGE_LOOP('',(#1154));
#197=LINE('',#1716,#355);
#198=LINE('',#1718,#356);
#199=LINE('',#1720,#357);
#200=LINE('',#1721,#358);
#201=LINE('',#1724,#359);
#202=LINE('',#1726,#360);
#203=LINE('',#1727,#361);
#204=LINE('',#1730,#362);
#205=LINE('',#1732,#363);
#206=LINE('',#1733,#364);
#207=LINE('',#1735,#365);
#208=LINE('',#1736,#366);
#209=LINE('',#1741,#367);
#210=LINE('',#1743,#368);
#211=LINE('',#1745,#369);
#212=LINE('',#1746,#370);
#213=LINE('',#1749,#371);
#214=LINE('',#1751,#372);
#215=LINE('',#1752,#373);
#216=LINE('',#1755,#374);
#217=LINE('',#1757,#375);
#218=LINE('',#1758,#376);
#219=LINE('',#1760,#377);
#220=LINE('',#1761,#378);
#221=LINE('',#1766,#379);
#222=LINE('',#1768,#380);
#223=LINE('',#1770,#381);
#224=LINE('',#1771,#382);
#225=LINE('',#1775,#383);
#226=LINE('',#1776,#384);
#227=LINE('',#1778,#385);
#228=LINE('',#1779,#386);
#229=LINE('',#1782,#387);
#230=LINE('',#1784,#388);
#231=LINE('',#1785,#389);
#232=LINE('',#1788,#390);
#233=LINE('',#1789,#391);
#234=LINE('',#1790,#392);
#235=LINE('',#1793,#393);
#236=LINE('',#1797,#394);
#237=LINE('',#1799,#395);
#238=LINE('',#1801,#396);
#239=LINE('',#1802,#397);
#240=LINE('',#1806,#398);
#241=LINE('',#1808,#399);
#242=LINE('',#1810,#400);
#243=LINE('',#1811,#401);
#244=LINE('',#1813,#402);
#245=LINE('',#1814,#403);
#246=LINE('',#1816,#404);
#247=LINE('',#1819,#405);
#248=LINE('',#1821,#406);
#249=LINE('',#1823,#407);
#250=LINE('',#1825,#408);
#251=LINE('',#1827,#409);
#252=LINE('',#1829,#410);
#253=LINE('',#1831,#411);
#254=LINE('',#1833,#412);
#255=LINE('',#1835,#413);
#256=LINE('',#1837,#414);
#257=LINE('',#1839,#415);
#258=LINE('',#1841,#416);
#259=LINE('',#1843,#417);
#260=LINE('',#1847,#418);
#261=LINE('',#1849,#419);
#262=LINE('',#1851,#420);
#263=LINE('',#1853,#421);
#264=LINE('',#1855,#422);
#265=LINE('',#1857,#423);
#266=LINE('',#1859,#424);
#267=LINE('',#1861,#425);
#268=LINE('',#1863,#426);
#269=LINE('',#1865,#427);
#270=LINE('',#1867,#428);
#271=LINE('',#1871,#429);
#272=LINE('',#1875,#430);
#273=LINE('',#1878,#431);
#274=LINE('',#1889,#432);
#275=LINE('',#1891,#433);
#276=LINE('',#1892,#434);
#277=LINE('',#1895,#435);
#278=LINE('',#1896,#436);
#279=LINE('',#1899,#437);
#280=LINE('',#1900,#438);
#281=LINE('',#1902,#439);
#282=LINE('',#1905,#440);
#283=LINE('',#1907,#441);
#284=LINE('',#1908,#442);
#285=LINE('',#1911,#443);
#286=LINE('',#1912,#444);
#287=LINE('',#1915,#445);
#288=LINE('',#1916,#446);
#289=LINE('',#1918,#447);
#290=LINE('',#1922,#448);
#291=LINE('',#1924,#449);
#292=LINE('',#1926,#450);
#293=LINE('',#1927,#451);
#294=LINE('',#1929,#452);
#295=LINE('',#1931,#453);
#296=LINE('',#1932,#454);
#297=LINE('',#1935,#455);
#298=LINE('',#1936,#456);
#299=LINE('',#1938,#457);
#300=LINE('',#1939,#458);
#301=LINE('',#1942,#459);
#302=LINE('',#1945,#460);
#303=LINE('',#1947,#461);
#304=LINE('',#1949,#462);
#305=LINE('',#1950,#463);
#306=LINE('',#1953,#464);
#307=LINE('',#1955,#465);
#308=LINE('',#1956,#466);
#309=LINE('',#1958,#467);
#310=LINE('',#1960,#468);
#311=LINE('',#1961,#469);
#312=LINE('',#1963,#470);
#313=LINE('',#1966,#471);
#314=LINE('',#1969,#472);
#315=LINE('',#1971,#473);
#316=LINE('',#1973,#474);
#317=LINE('',#1974,#475);
#318=LINE('',#1977,#476);
#319=LINE('',#1979,#477);
#320=LINE('',#1980,#478);
#321=LINE('',#1982,#479);
#322=LINE('',#1984,#480);
#323=LINE('',#1985,#481);
#324=LINE('',#1987,#482);
#325=LINE('',#1992,#483);
#326=LINE('',#1995,#484);
#327=LINE('',#1997,#485);
#328=LINE('',#1998,#486);
#329=LINE('',#2001,#487);
#330=LINE('',#2003,#488);
#331=LINE('',#2004,#489);
#332=LINE('',#2007,#490);
#333=LINE('',#2009,#491);
#334=LINE('',#2010,#492);
#335=LINE('',#2012,#493);
#336=LINE('',#2013,#494);
#337=LINE('',#2017,#495);
#338=LINE('',#2021,#496);
#339=LINE('',#2025,#497);
#340=LINE('',#2029,#498);
#341=LINE('',#2033,#499);
#342=LINE('',#2038,#500);
#343=LINE('',#2039,#501);
#344=LINE('',#2040,#502);
#345=LINE('',#2044,#503);
#346=LINE('',#2047,#504);
#347=LINE('',#2048,#505);
#348=LINE('',#2052,#506);
#349=LINE('',#2054,#507);
#350=LINE('',#2056,#508);
#351=LINE('',#2057,#509);
#352=LINE('',#2061,#510);
#353=LINE('',#2064,#511);
#354=LINE('',#2065,#512);
#355=VECTOR('',#1385,10.);
#356=VECTOR('',#1386,10.);
#357=VECTOR('',#1387,10.);
#358=VECTOR('',#1388,10.);
#359=VECTOR('',#1391,10.);
#360=VECTOR('',#1392,10.);
#361=VECTOR('',#1393,10.);
#362=VECTOR('',#1396,10.);
#363=VECTOR('',#1397,10.);
#364=VECTOR('',#1398,10.);
#365=VECTOR('',#1401,10.);
#366=VECTOR('',#1402,10.);
#367=VECTOR('',#1407,10.);
#368=VECTOR('',#1408,10.);
#369=VECTOR('',#1409,10.);
#370=VECTOR('',#1410,10.);
#371=VECTOR('',#1413,10.);
#372=VECTOR('',#1414,10.);
#373=VECTOR('',#1415,10.);
#374=VECTOR('',#1418,10.);
#375=VECTOR('',#1419,10.);
#376=VECTOR('',#1420,10.);
#377=VECTOR('',#1423,10.);
#378=VECTOR('',#1424,10.);
#379=VECTOR('',#1429,10.);
#380=VECTOR('',#1430,10.);
#381=VECTOR('',#1431,10.);
#382=VECTOR('',#1432,10.);
#383=VECTOR('',#1435,10.);
#384=VECTOR('',#1436,10.);
#385=VECTOR('',#1437,10.);
#386=VECTOR('',#1438,10.);
#387=VECTOR('',#1441,10.);
#388=VECTOR('',#1442,10.);
#389=VECTOR('',#1443,10.);
#390=VECTOR('',#1446,10.);
#391=VECTOR('',#1447,10.);
#392=VECTOR('',#1448,10.);
#393=VECTOR('',#1453,10.);
#394=VECTOR('',#1456,10.);
#395=VECTOR('',#1457,10.);
#396=VECTOR('',#1458,10.);
#397=VECTOR('',#1459,10.);
#398=VECTOR('',#1462,10.);
#399=VECTOR('',#1463,10.);
#400=VECTOR('',#1464,10.);
#401=VECTOR('',#1465,10.);
#402=VECTOR('',#1468,10.);
#403=VECTOR('',#1469,10.);
#404=VECTOR('',#1472,10.);
#405=VECTOR('',#1475,10.);
#406=VECTOR('',#1476,10.);
#407=VECTOR('',#1477,10.);
#408=VECTOR('',#1478,10.);
#409=VECTOR('',#1479,10.);
#410=VECTOR('',#1480,10.);
#411=VECTOR('',#1481,10.);
#412=VECTOR('',#1482,10.);
#413=VECTOR('',#1483,10.);
#414=VECTOR('',#1484,10.);
#415=VECTOR('',#1485,10.);
#416=VECTOR('',#1486,10.);
#417=VECTOR('',#1487,10.);
#418=VECTOR('',#1490,10.);
#419=VECTOR('',#1491,10.);
#420=VECTOR('',#1492,10.);
#421=VECTOR('',#1493,10.);
#422=VECTOR('',#1494,10.);
#423=VECTOR('',#1495,10.);
#424=VECTOR('',#1496,10.);
#425=VECTOR('',#1497,10.);
#426=VECTOR('',#1498,10.);
#427=VECTOR('',#1499,10.);
#428=VECTOR('',#1500,10.);
#429=VECTOR('',#1503,10.);
#430=VECTOR('',#1506,10.);
#431=VECTOR('',#1509,10.);
#432=VECTOR('',#1520,10.);
#433=VECTOR('',#1521,10.);
#434=VECTOR('',#1522,10.);
#435=VECTOR('',#1525,10.);
#436=VECTOR('',#1526,10.);
#437=VECTOR('',#1529,10.);
#438=VECTOR('',#1530,10.);
#439=VECTOR('',#1533,10.);
#440=VECTOR('',#1536,10.);
#441=VECTOR('',#1537,10.);
#442=VECTOR('',#1538,10.);
#443=VECTOR('',#1541,10.);
#444=VECTOR('',#1542,10.);
#445=VECTOR('',#1545,10.);
#446=VECTOR('',#1546,10.);
#447=VECTOR('',#1549,10.);
#448=VECTOR('',#1552,10.);
#449=VECTOR('',#1553,10.);
#450=VECTOR('',#1554,10.);
#451=VECTOR('',#1555,10.);
#452=VECTOR('',#1558,10.);
#453=VECTOR('',#1559,10.);
#454=VECTOR('',#1560,10.);
#455=VECTOR('',#1563,10.);
#456=VECTOR('',#1564,10.);
#457=VECTOR('',#1567,10.);
#458=VECTOR('',#1568,10.);
#459=VECTOR('',#1573,10.);
#460=VECTOR('',#1576,10.);
#461=VECTOR('',#1577,10.);
#462=VECTOR('',#1578,10.);
#463=VECTOR('',#1579,10.);
#464=VECTOR('',#1582,10.);
#465=VECTOR('',#1583,10.);
#466=VECTOR('',#1584,10.);
#467=VECTOR('',#1587,10.);
#468=VECTOR('',#1588,10.);
#469=VECTOR('',#1589,10.);
#470=VECTOR('',#1592,10.);
#471=VECTOR('',#1597,10.);
#472=VECTOR('',#1600,10.);
#473=VECTOR('',#1601,10.);
#474=VECTOR('',#1602,10.);
#475=VECTOR('',#1603,10.);
#476=VECTOR('',#1606,10.);
#477=VECTOR('',#1607,10.);
#478=VECTOR('',#1608,10.);
#479=VECTOR('',#1611,10.);
#480=VECTOR('',#1612,10.);
#481=VECTOR('',#1613,10.);
#482=VECTOR('',#1616,10.);
#483=VECTOR('',#1623,10.);
#484=VECTOR('',#1626,10.);
#485=VECTOR('',#1627,10.);
#486=VECTOR('',#1628,10.);
#487=VECTOR('',#1631,10.);
#488=VECTOR('',#1632,10.);
#489=VECTOR('',#1633,10.);
#490=VECTOR('',#1636,10.);
#491=VECTOR('',#1637,10.);
#492=VECTOR('',#1638,10.);
#493=VECTOR('',#1641,10.);
#494=VECTOR('',#1642,10.);
#495=VECTOR('',#1647,10.);
#496=VECTOR('',#1652,1.375);
#497=VECTOR('',#1657,1.375);
#498=VECTOR('',#1662,1.375);
#499=VECTOR('',#1667,1.375);
#500=VECTOR('',#1672,10.);
#501=VECTOR('',#1673,10.);
#502=VECTOR('',#1674,10.);
#503=VECTOR('',#1679,10.);
#504=VECTOR('',#1682,10.);
#505=VECTOR('',#1683,10.);
#506=VECTOR('',#1688,10.);
#507=VECTOR('',#1691,10.);
#508=VECTOR('',#1692,10.);
#509=VECTOR('',#1693,10.);
#510=VECTOR('',#1698,10.);
#511=VECTOR('',#1701,10.);
#512=VECTOR('',#1702,10.);
#513=VERTEX_POINT('',#1714);
#514=VERTEX_POINT('',#1715);
#515=VERTEX_POINT('',#1717);
#516=VERTEX_POINT('',#1719);
#517=VERTEX_POINT('',#1723);
#518=VERTEX_POINT('',#1725);
#519=VERTEX_POINT('',#1729);
#520=VERTEX_POINT('',#1731);
#521=VERTEX_POINT('',#1739);
#522=VERTEX_POINT('',#1740);
#523=VERTEX_POINT('',#1742);
#524=VERTEX_POINT('',#1744);
#525=VERTEX_POINT('',#1748);
#526=VERTEX_POINT('',#1750);
#527=VERTEX_POINT('',#1754);
#528=VERTEX_POINT('',#1756);
#529=VERTEX_POINT('',#1764);
#530=VERTEX_POINT('',#1765);
#531=VERTEX_POINT('',#1767);
#532=VERTEX_POINT('',#1769);
#533=VERTEX_POINT('',#1773);
#534=VERTEX_POINT('',#1774);
#535=VERTEX_POINT('',#1777);
#536=VERTEX_POINT('',#1781);
#537=VERTEX_POINT('',#1783);
#538=VERTEX_POINT('',#1787);
#539=VERTEX_POINT('',#1795);
#540=VERTEX_POINT('',#1796);
#541=VERTEX_POINT('',#1798);
#542=VERTEX_POINT('',#1800);
#543=VERTEX_POINT('',#1804);
#544=VERTEX_POINT('',#1805);
#545=VERTEX_POINT('',#1807);
#546=VERTEX_POINT('',#1809);
#547=VERTEX_POINT('',#1818);
#548=VERTEX_POINT('',#1820);
#549=VERTEX_POINT('',#1822);
#550=VERTEX_POINT('',#1824);
#551=VERTEX_POINT('',#1826);
#552=VERTEX_POINT('',#1828);
#553=VERTEX_POINT('',#1830);
#554=VERTEX_POINT('',#1832);
#555=VERTEX_POINT('',#1834);
#556=VERTEX_POINT('',#1836);
#557=VERTEX_POINT('',#1838);
#558=VERTEX_POINT('',#1840);
#559=VERTEX_POINT('',#1842);
#560=VERTEX_POINT('',#1844);
#561=VERTEX_POINT('',#1846);
#562=VERTEX_POINT('',#1848);
#563=VERTEX_POINT('',#1850);
#564=VERTEX_POINT('',#1852);
#565=VERTEX_POINT('',#1854);
#566=VERTEX_POINT('',#1856);
#567=VERTEX_POINT('',#1858);
#568=VERTEX_POINT('',#1860);
#569=VERTEX_POINT('',#1862);
#570=VERTEX_POINT('',#1864);
#571=VERTEX_POINT('',#1866);
#572=VERTEX_POINT('',#1868);
#573=VERTEX_POINT('',#1870);
#574=VERTEX_POINT('',#1872);
#575=VERTEX_POINT('',#1874);
#576=VERTEX_POINT('',#1876);
#577=VERTEX_POINT('',#1879);
#578=VERTEX_POINT('',#1881);
#579=VERTEX_POINT('',#1883);
#580=VERTEX_POINT('',#1885);
#581=VERTEX_POINT('',#1888);
#582=VERTEX_POINT('',#1890);
#583=VERTEX_POINT('',#1894);
#584=VERTEX_POINT('',#1898);
#585=VERTEX_POINT('',#1904);
#586=VERTEX_POINT('',#1906);
#587=VERTEX_POINT('',#1910);
#588=VERTEX_POINT('',#1914);
#589=VERTEX_POINT('',#1920);
#590=VERTEX_POINT('',#1921);
#591=VERTEX_POINT('',#1923);
#592=VERTEX_POINT('',#1925);
#593=VERTEX_POINT('',#1930);
#594=VERTEX_POINT('',#1934);
#595=VERTEX_POINT('',#1944);
#596=VERTEX_POINT('',#1946);
#597=VERTEX_POINT('',#1948);
#598=VERTEX_POINT('',#1952);
#599=VERTEX_POINT('',#1954);
#600=VERTEX_POINT('',#1959);
#601=VERTEX_POINT('',#1968);
#602=VERTEX_POINT('',#1970);
#603=VERTEX_POINT('',#1972);
#604=VERTEX_POINT('',#1976);
#605=VERTEX_POINT('',#1978);
#606=VERTEX_POINT('',#1983);
#607=VERTEX_POINT('',#1990);
#608=VERTEX_POINT('',#1994);
#609=VERTEX_POINT('',#1996);
#610=VERTEX_POINT('',#2000);
#611=VERTEX_POINT('',#2002);
#612=VERTEX_POINT('',#2006);
#613=VERTEX_POINT('',#2008);
#614=VERTEX_POINT('',#2016);
#615=VERTEX_POINT('',#2020);
#616=VERTEX_POINT('',#2024);
#617=VERTEX_POINT('',#2028);
#618=VERTEX_POINT('',#2032);
#619=VERTEX_POINT('',#2036);
#620=VERTEX_POINT('',#2037);
#621=VERTEX_POINT('',#2042);
#622=VERTEX_POINT('',#2046);
#623=VERTEX_POINT('',#2050);
#624=VERTEX_POINT('',#2055);
#625=VERTEX_POINT('',#2059);
#626=VERTEX_POINT('',#2063);
#627=EDGE_CURVE('',#513,#514,#197,.T.);
#628=EDGE_CURVE('',#513,#515,#198,.T.);
#629=EDGE_CURVE('',#516,#515,#199,.T.);
#630=EDGE_CURVE('',#514,#516,#200,.T.);
#631=EDGE_CURVE('',#514,#517,#201,.T.);
#632=EDGE_CURVE('',#518,#516,#202,.T.);
#633=EDGE_CURVE('',#517,#518,#203,.T.);
#634=EDGE_CURVE('',#517,#519,#204,.T.);
#635=EDGE_CURVE('',#520,#518,#205,.T.);
#636=EDGE_CURVE('',#519,#520,#206,.T.);
#637=EDGE_CURVE('',#519,#513,#207,.T.);
#638=EDGE_CURVE('',#515,#520,#208,.T.);
#639=EDGE_CURVE('',#521,#522,#209,.T.);
#640=EDGE_CURVE('',#521,#523,#210,.T.);
#641=EDGE_CURVE('',#524,#523,#211,.T.);
#642=EDGE_CURVE('',#522,#524,#212,.T.);
#643=EDGE_CURVE('',#522,#525,#213,.T.);
#644=EDGE_CURVE('',#526,#524,#214,.T.);
#645=EDGE_CURVE('',#525,#526,#215,.T.);
#646=EDGE_CURVE('',#525,#527,#216,.T.);
#647=EDGE_CURVE('',#528,#526,#217,.T.);
#648=EDGE_CURVE('',#527,#528,#218,.T.);
#649=EDGE_CURVE('',#527,#521,#219,.T.);
#650=EDGE_CURVE('',#523,#528,#220,.T.);
#651=EDGE_CURVE('',#529,#530,#221,.T.);
#652=EDGE_CURVE('',#529,#531,#222,.T.);
#653=EDGE_CURVE('',#532,#531,#223,.T.);
#654=EDGE_CURVE('',#530,#532,#224,.T.);
#655=EDGE_CURVE('',#533,#534,#225,.T.);
#656=EDGE_CURVE('',#530,#534,#226,.T.);
#657=EDGE_CURVE('',#535,#532,#227,.T.);
#658=EDGE_CURVE('',#533,#535,#228,.T.);
#659=EDGE_CURVE('',#536,#533,#229,.T.);
#660=EDGE_CURVE('',#537,#535,#230,.T.);
#661=EDGE_CURVE('',#536,#537,#231,.T.);
#662=EDGE_CURVE('',#538,#529,#232,.T.);
#663=EDGE_CURVE('',#538,#536,#233,.T.);
#664=EDGE_CURVE('',#531,#537,#234,.T.);
#665=EDGE_CURVE('',#538,#534,#235,.T.);
#666=EDGE_CURVE('',#539,#540,#236,.T.);
#667=EDGE_CURVE('',#539,#541,#237,.T.);
#668=EDGE_CURVE('',#542,#541,#238,.T.);
#669=EDGE_CURVE('',#540,#542,#239,.T.);
#670=EDGE_CURVE('',#543,#544,#240,.T.);
#671=EDGE_CURVE('',#543,#545,#241,.T.);
#672=EDGE_CURVE('',#546,#545,#242,.T.);
#673=EDGE_CURVE('',#544,#546,#243,.T.);
#674=EDGE_CURVE('',#544,#539,#244,.T.);
#675=EDGE_CURVE('',#541,#546,#245,.T.);
#676=EDGE_CURVE('',#545,#542,#246,.T.);
#677=EDGE_CURVE('',#540,#547,#247,.T.);
#678=EDGE_CURVE('',#547,#548,#248,.T.);
#679=EDGE_CURVE('',#548,#549,#249,.T.);
#680=EDGE_CURVE('',#549,#550,#250,.T.);
#681=EDGE_CURVE('',#550,#551,#251,.T.);
#682=EDGE_CURVE('',#551,#552,#252,.T.);
#683=EDGE_CURVE('',#552,#553,#253,.T.);
#684=EDGE_CURVE('',#553,#554,#254,.T.);
#685=EDGE_CURVE('',#554,#555,#255,.T.);
#686=EDGE_CURVE('',#555,#556,#256,.T.);
#687=EDGE_CURVE('',#556,#557,#257,.T.);
#688=EDGE_CURVE('',#557,#558,#258,.T.);
#689=EDGE_CURVE('',#558,#559,#259,.T.);
#690=EDGE_CURVE('',#559,#560,#37,.T.);
#691=EDGE_CURVE('',#560,#561,#260,.T.);
#692=EDGE_CURVE('',#561,#562,#261,.T.);
#693=EDGE_CURVE('',#562,#563,#262,.T.);
#694=EDGE_CURVE('',#563,#564,#263,.T.);
#695=EDGE_CURVE('',#564,#565,#264,.T.);
#696=EDGE_CURVE('',#565,#566,#265,.T.);
#697=EDGE_CURVE('',#566,#567,#266,.T.);
#698=EDGE_CURVE('',#567,#568,#267,.T.);
#699=EDGE_CURVE('',#568,#569,#268,.T.);
#700=EDGE_CURVE('',#569,#570,#269,.T.);
#701=EDGE_CURVE('',#570,#571,#270,.T.);
#702=EDGE_CURVE('',#571,#572,#38,.T.);
#703=EDGE_CURVE('',#572,#573,#271,.T.);
#704=EDGE_CURVE('',#573,#574,#39,.T.);
#705=EDGE_CURVE('',#574,#575,#272,.T.);
#706=EDGE_CURVE('',#575,#576,#40,.T.);
#707=EDGE_CURVE('',#576,#543,#273,.T.);
#708=EDGE_CURVE('',#577,#577,#41,.T.);
#709=EDGE_CURVE('',#578,#578,#42,.T.);
#710=EDGE_CURVE('',#579,#579,#43,.T.);
#711=EDGE_CURVE('',#580,#580,#44,.T.);
#712=EDGE_CURVE('',#547,#581,#274,.T.);
#713=EDGE_CURVE('',#582,#581,#275,.T.);
#714=EDGE_CURVE('',#548,#582,#276,.T.);
#715=EDGE_CURVE('',#583,#582,#277,.T.);
#716=EDGE_CURVE('',#549,#583,#278,.T.);
#717=EDGE_CURVE('',#584,#583,#279,.T.);
#718=EDGE_CURVE('',#550,#584,#280,.T.);
#719=EDGE_CURVE('',#581,#584,#281,.T.);
#720=EDGE_CURVE('',#551,#585,#282,.T.);
#721=EDGE_CURVE('',#586,#585,#283,.T.);
#722=EDGE_CURVE('',#552,#586,#284,.T.);
#723=EDGE_CURVE('',#587,#586,#285,.T.);
#724=EDGE_CURVE('',#553,#587,#286,.T.);
#725=EDGE_CURVE('',#588,#587,#287,.T.);
#726=EDGE_CURVE('',#554,#588,#288,.T.);
#727=EDGE_CURVE('',#585,#588,#289,.T.);
#728=EDGE_CURVE('',#589,#590,#290,.T.);
#729=EDGE_CURVE('',#589,#591,#291,.T.);
#730=EDGE_CURVE('',#592,#591,#292,.T.);
#731=EDGE_CURVE('',#590,#592,#293,.T.);
#732=EDGE_CURVE('',#590,#555,#294,.T.);
#733=EDGE_CURVE('',#593,#592,#295,.T.);
#734=EDGE_CURVE('',#556,#593,#296,.T.);
#735=EDGE_CURVE('',#594,#593,#297,.T.);
#736=EDGE_CURVE('',#557,#594,#298,.T.);
#737=EDGE_CURVE('',#591,#594,#299,.T.);
#738=EDGE_CURVE('',#558,#589,#300,.T.);
#739=EDGE_CURVE('',#555,#558,#301,.T.);
#740=EDGE_CURVE('',#566,#595,#302,.T.);
#741=EDGE_CURVE('',#596,#595,#303,.T.);
#742=EDGE_CURVE('',#597,#596,#304,.T.);
#743=EDGE_CURVE('',#567,#597,#305,.T.);
#744=EDGE_CURVE('',#597,#598,#306,.T.);
#745=EDGE_CURVE('',#599,#596,#307,.T.);
#746=EDGE_CURVE('',#598,#599,#308,.T.);
#747=EDGE_CURVE('',#598,#564,#309,.T.);
#748=EDGE_CURVE('',#600,#599,#310,.T.);
#749=EDGE_CURVE('',#565,#600,#311,.T.);
#750=EDGE_CURVE('',#595,#600,#312,.T.);
#751=EDGE_CURVE('',#564,#567,#313,.T.);
#752=EDGE_CURVE('',#570,#601,#314,.T.);
#753=EDGE_CURVE('',#602,#601,#315,.T.);
#754=EDGE_CURVE('',#603,#602,#316,.T.);
#755=EDGE_CURVE('',#571,#603,#317,.T.);
#756=EDGE_CURVE('',#603,#604,#318,.T.);
#757=EDGE_CURVE('',#605,#602,#319,.T.);
#758=EDGE_CURVE('',#604,#605,#320,.T.);
#759=EDGE_CURVE('',#604,#568,#321,.T.);
#760=EDGE_CURVE('',#606,#605,#322,.T.);
#761=EDGE_CURVE('',#569,#606,#323,.T.);
#762=EDGE_CURVE('',#601,#606,#324,.T.);
#763=EDGE_CURVE('',#607,#571,#45,.T.);
#764=EDGE_CURVE('',#568,#607,#325,.T.);
#765=EDGE_CURVE('',#561,#608,#326,.T.);
#766=EDGE_CURVE('',#609,#608,#327,.T.);
#767=EDGE_CURVE('',#562,#609,#328,.T.);
#768=EDGE_CURVE('',#610,#563,#329,.T.);
#769=EDGE_CURVE('',#611,#609,#330,.T.);
#770=EDGE_CURVE('',#610,#611,#331,.T.);
#771=EDGE_CURVE('',#612,#610,#332,.T.);
#772=EDGE_CURVE('',#613,#611,#333,.T.);
#773=EDGE_CURVE('',#612,#613,#334,.T.);
#774=EDGE_CURVE('',#560,#612,#335,.T.);
#775=EDGE_CURVE('',#608,#613,#336,.T.);
#776=EDGE_CURVE('',#614,#563,#337,.T.);
#777=EDGE_CURVE('',#560,#614,#46,.T.);
#778=EDGE_CURVE('',#580,#615,#338,.T.);
#779=EDGE_CURVE('',#615,#615,#47,.T.);
#780=EDGE_CURVE('',#579,#616,#339,.T.);
#781=EDGE_CURVE('',#616,#616,#48,.T.);
#782=EDGE_CURVE('',#578,#617,#340,.T.);
#783=EDGE_CURVE('',#617,#617,#49,.T.);
#784=EDGE_CURVE('',#577,#618,#341,.T.);
#785=EDGE_CURVE('',#618,#618,#50,.T.);
#786=EDGE_CURVE('',#619,#620,#342,.T.);
#787=EDGE_CURVE('',#619,#607,#343,.T.);
#788=EDGE_CURVE('',#620,#614,#344,.T.);
#789=EDGE_CURVE('',#621,#620,#51,.T.);
#790=EDGE_CURVE('',#621,#559,#345,.T.);
#791=EDGE_CURVE('',#621,#622,#346,.T.);
#792=EDGE_CURVE('',#622,#576,#347,.T.);
#793=EDGE_CURVE('',#623,#622,#52,.T.);
#794=EDGE_CURVE('',#623,#575,#348,.T.);
#795=EDGE_CURVE('',#623,#538,#349,.T.);
#796=EDGE_CURVE('',#624,#574,#350,.T.);
#797=EDGE_CURVE('',#534,#624,#351,.T.);
#798=EDGE_CURVE('',#625,#624,#53,.T.);
#799=EDGE_CURVE('',#625,#573,#352,.T.);
#800=EDGE_CURVE('',#625,#626,#353,.T.);
#801=EDGE_CURVE('',#626,#572,#354,.T.);
#802=EDGE_CURVE('',#619,#626,#54,.T.);
#803=ORIENTED_EDGE('',*,*,#627,.F.);
#804=ORIENTED_EDGE('',*,*,#628,.T.);
#805=ORIENTED_EDGE('',*,*,#629,.F.);
#806=ORIENTED_EDGE('',*,*,#630,.F.);
#807=ORIENTED_EDGE('',*,*,#631,.F.);
#808=ORIENTED_EDGE('',*,*,#630,.T.);
#809=ORIENTED_EDGE('',*,*,#632,.F.);
#810=ORIENTED_EDGE('',*,*,#633,.F.);
#811=ORIENTED_EDGE('',*,*,#634,.F.);
#812=ORIENTED_EDGE('',*,*,#633,.T.);
#813=ORIENTED_EDGE('',*,*,#635,.F.);
#814=ORIENTED_EDGE('',*,*,#636,.F.);
#815=ORIENTED_EDGE('',*,*,#637,.F.);
#816=ORIENTED_EDGE('',*,*,#636,.T.);
#817=ORIENTED_EDGE('',*,*,#638,.F.);
#818=ORIENTED_EDGE('',*,*,#628,.F.);
#819=ORIENTED_EDGE('',*,*,#638,.T.);
#820=ORIENTED_EDGE('',*,*,#635,.T.);
#821=ORIENTED_EDGE('',*,*,#632,.T.);
#822=ORIENTED_EDGE('',*,*,#629,.T.);
#823=ORIENTED_EDGE('',*,*,#639,.F.);
#824=ORIENTED_EDGE('',*,*,#640,.T.);
#825=ORIENTED_EDGE('',*,*,#641,.F.);
#826=ORIENTED_EDGE('',*,*,#642,.F.);
#827=ORIENTED_EDGE('',*,*,#643,.F.);
#828=ORIENTED_EDGE('',*,*,#642,.T.);
#829=ORIENTED_EDGE('',*,*,#644,.F.);
#830=ORIENTED_EDGE('',*,*,#645,.F.);
#831=ORIENTED_EDGE('',*,*,#646,.F.);
#832=ORIENTED_EDGE('',*,*,#645,.T.);
#833=ORIENTED_EDGE('',*,*,#647,.F.);
#834=ORIENTED_EDGE('',*,*,#648,.F.);
#835=ORIENTED_EDGE('',*,*,#649,.F.);
#836=ORIENTED_EDGE('',*,*,#648,.T.);
#837=ORIENTED_EDGE('',*,*,#650,.F.);
#838=ORIENTED_EDGE('',*,*,#640,.F.);
#839=ORIENTED_EDGE('',*,*,#650,.T.);
#840=ORIENTED_EDGE('',*,*,#647,.T.);
#841=ORIENTED_EDGE('',*,*,#644,.T.);
#842=ORIENTED_EDGE('',*,*,#641,.T.);
#843=ORIENTED_EDGE('',*,*,#651,.F.);
#844=ORIENTED_EDGE('',*,*,#652,.T.);
#845=ORIENTED_EDGE('',*,*,#653,.F.);
#846=ORIENTED_EDGE('',*,*,#654,.F.);
#847=ORIENTED_EDGE('',*,*,#655,.T.);
#848=ORIENTED_EDGE('',*,*,#656,.F.);
#849=ORIENTED_EDGE('',*,*,#654,.T.);
#850=ORIENTED_EDGE('',*,*,#657,.F.);
#851=ORIENTED_EDGE('',*,*,#658,.F.);
#852=ORIENTED_EDGE('',*,*,#659,.T.);
#853=ORIENTED_EDGE('',*,*,#658,.T.);
#854=ORIENTED_EDGE('',*,*,#660,.F.);
#855=ORIENTED_EDGE('',*,*,#661,.F.);
#856=ORIENTED_EDGE('',*,*,#662,.F.);
#857=ORIENTED_EDGE('',*,*,#663,.T.);
#858=ORIENTED_EDGE('',*,*,#661,.T.);
#859=ORIENTED_EDGE('',*,*,#664,.F.);
#860=ORIENTED_EDGE('',*,*,#652,.F.);
#861=ORIENTED_EDGE('',*,*,#664,.T.);
#862=ORIENTED_EDGE('',*,*,#660,.T.);
#863=ORIENTED_EDGE('',*,*,#657,.T.);
#864=ORIENTED_EDGE('',*,*,#653,.T.);
#865=ORIENTED_EDGE('',*,*,#665,.T.);
#866=ORIENTED_EDGE('',*,*,#655,.F.);
#867=ORIENTED_EDGE('',*,*,#659,.F.);
#868=ORIENTED_EDGE('',*,*,#663,.F.);
#869=ORIENTED_EDGE('',*,*,#666,.F.);
#870=ORIENTED_EDGE('',*,*,#667,.T.);
#871=ORIENTED_EDGE('',*,*,#668,.F.);
#872=ORIENTED_EDGE('',*,*,#669,.F.);
#873=ORIENTED_EDGE('',*,*,#670,.F.);
#874=ORIENTED_EDGE('',*,*,#671,.T.);
#875=ORIENTED_EDGE('',*,*,#672,.F.);
#876=ORIENTED_EDGE('',*,*,#673,.F.);
#877=ORIENTED_EDGE('',*,*,#674,.F.);
#878=ORIENTED_EDGE('',*,*,#673,.T.);
#879=ORIENTED_EDGE('',*,*,#675,.F.);
#880=ORIENTED_EDGE('',*,*,#667,.F.);
#881=ORIENTED_EDGE('',*,*,#675,.T.);
#882=ORIENTED_EDGE('',*,*,#672,.T.);
#883=ORIENTED_EDGE('',*,*,#676,.T.);
#884=ORIENTED_EDGE('',*,*,#668,.T.);
#885=ORIENTED_EDGE('',*,*,#670,.T.);
#886=ORIENTED_EDGE('',*,*,#674,.T.);
#887=ORIENTED_EDGE('',*,*,#666,.T.);
#888=ORIENTED_EDGE('',*,*,#677,.T.);
#889=ORIENTED_EDGE('',*,*,#678,.T.);
#890=ORIENTED_EDGE('',*,*,#679,.T.);
#891=ORIENTED_EDGE('',*,*,#680,.T.);
#892=ORIENTED_EDGE('',*,*,#681,.T.);
#893=ORIENTED_EDGE('',*,*,#682,.T.);
#894=ORIENTED_EDGE('',*,*,#683,.T.);
#895=ORIENTED_EDGE('',*,*,#684,.T.);
#896=ORIENTED_EDGE('',*,*,#685,.T.);
#897=ORIENTED_EDGE('',*,*,#686,.T.);
#898=ORIENTED_EDGE('',*,*,#687,.T.);
#899=ORIENTED_EDGE('',*,*,#688,.T.);
#900=ORIENTED_EDGE('',*,*,#689,.T.);
#901=ORIENTED_EDGE('',*,*,#690,.T.);
#902=ORIENTED_EDGE('',*,*,#691,.T.);
#903=ORIENTED_EDGE('',*,*,#692,.T.);
#904=ORIENTED_EDGE('',*,*,#693,.T.);
#905=ORIENTED_EDGE('',*,*,#694,.T.);
#906=ORIENTED_EDGE('',*,*,#695,.T.);
#907=ORIENTED_EDGE('',*,*,#696,.T.);
#908=ORIENTED_EDGE('',*,*,#697,.T.);
#909=ORIENTED_EDGE('',*,*,#698,.T.);
#910=ORIENTED_EDGE('',*,*,#699,.T.);
#911=ORIENTED_EDGE('',*,*,#700,.T.);
#912=ORIENTED_EDGE('',*,*,#701,.T.);
#913=ORIENTED_EDGE('',*,*,#702,.T.);
#914=ORIENTED_EDGE('',*,*,#703,.T.);
#915=ORIENTED_EDGE('',*,*,#704,.T.);
#916=ORIENTED_EDGE('',*,*,#705,.T.);
#917=ORIENTED_EDGE('',*,*,#706,.T.);
#918=ORIENTED_EDGE('',*,*,#707,.T.);
#919=ORIENTED_EDGE('',*,*,#627,.T.);
#920=ORIENTED_EDGE('',*,*,#631,.T.);
#921=ORIENTED_EDGE('',*,*,#634,.T.);
#922=ORIENTED_EDGE('',*,*,#637,.T.);
#923=ORIENTED_EDGE('',*,*,#639,.T.);
#924=ORIENTED_EDGE('',*,*,#643,.T.);
#925=ORIENTED_EDGE('',*,*,#646,.T.);
#926=ORIENTED_EDGE('',*,*,#649,.T.);
#927=ORIENTED_EDGE('',*,*,#708,.T.);
#928=ORIENTED_EDGE('',*,*,#709,.T.);
#929=ORIENTED_EDGE('',*,*,#710,.T.);
#930=ORIENTED_EDGE('',*,*,#711,.T.);
#931=ORIENTED_EDGE('',*,*,#678,.F.);
#932=ORIENTED_EDGE('',*,*,#712,.T.);
#933=ORIENTED_EDGE('',*,*,#713,.F.);
#934=ORIENTED_EDGE('',*,*,#714,.F.);
#935=ORIENTED_EDGE('',*,*,#679,.F.);
#936=ORIENTED_EDGE('',*,*,#714,.T.);
#937=ORIENTED_EDGE('',*,*,#715,.F.);
#938=ORIENTED_EDGE('',*,*,#716,.F.);
#939=ORIENTED_EDGE('',*,*,#680,.F.);
#940=ORIENTED_EDGE('',*,*,#716,.T.);
#941=ORIENTED_EDGE('',*,*,#717,.F.);
#942=ORIENTED_EDGE('',*,*,#718,.F.);
#943=ORIENTED_EDGE('',*,*,#719,.T.);
#944=ORIENTED_EDGE('',*,*,#717,.T.);
#945=ORIENTED_EDGE('',*,*,#715,.T.);
#946=ORIENTED_EDGE('',*,*,#713,.T.);
#947=ORIENTED_EDGE('',*,*,#682,.F.);
#948=ORIENTED_EDGE('',*,*,#720,.T.);
#949=ORIENTED_EDGE('',*,*,#721,.F.);
#950=ORIENTED_EDGE('',*,*,#722,.F.);
#951=ORIENTED_EDGE('',*,*,#683,.F.);
#952=ORIENTED_EDGE('',*,*,#722,.T.);
#953=ORIENTED_EDGE('',*,*,#723,.F.);
#954=ORIENTED_EDGE('',*,*,#724,.F.);
#955=ORIENTED_EDGE('',*,*,#684,.F.);
#956=ORIENTED_EDGE('',*,*,#724,.T.);
#957=ORIENTED_EDGE('',*,*,#725,.F.);
#958=ORIENTED_EDGE('',*,*,#726,.F.);
#959=ORIENTED_EDGE('',*,*,#725,.T.);
#960=ORIENTED_EDGE('',*,*,#723,.T.);
#961=ORIENTED_EDGE('',*,*,#721,.T.);
#962=ORIENTED_EDGE('',*,*,#727,.T.);
#963=ORIENTED_EDGE('',*,*,#728,.F.);
#964=ORIENTED_EDGE('',*,*,#729,.T.);
#965=ORIENTED_EDGE('',*,*,#730,.F.);
#966=ORIENTED_EDGE('',*,*,#731,.F.);
#967=ORIENTED_EDGE('',*,*,#732,.F.);
#968=ORIENTED_EDGE('',*,*,#731,.T.);
#969=ORIENTED_EDGE('',*,*,#733,.F.);
#970=ORIENTED_EDGE('',*,*,#734,.F.);
#971=ORIENTED_EDGE('',*,*,#686,.F.);
#972=ORIENTED_EDGE('',*,*,#687,.F.);
#973=ORIENTED_EDGE('',*,*,#734,.T.);
#974=ORIENTED_EDGE('',*,*,#735,.F.);
#975=ORIENTED_EDGE('',*,*,#736,.F.);
#976=ORIENTED_EDGE('',*,*,#688,.F.);
#977=ORIENTED_EDGE('',*,*,#736,.T.);
#978=ORIENTED_EDGE('',*,*,#737,.F.);
#979=ORIENTED_EDGE('',*,*,#729,.F.);
#980=ORIENTED_EDGE('',*,*,#738,.F.);
#981=ORIENTED_EDGE('',*,*,#737,.T.);
#982=ORIENTED_EDGE('',*,*,#735,.T.);
#983=ORIENTED_EDGE('',*,*,#733,.T.);
#984=ORIENTED_EDGE('',*,*,#730,.T.);
#985=ORIENTED_EDGE('',*,*,#739,.T.);
#986=ORIENTED_EDGE('',*,*,#738,.T.);
#987=ORIENTED_EDGE('',*,*,#728,.T.);
#988=ORIENTED_EDGE('',*,*,#732,.T.);
#989=ORIENTED_EDGE('',*,*,#697,.F.);
#990=ORIENTED_EDGE('',*,*,#740,.T.);
#991=ORIENTED_EDGE('',*,*,#741,.F.);
#992=ORIENTED_EDGE('',*,*,#742,.F.);
#993=ORIENTED_EDGE('',*,*,#743,.F.);
#994=ORIENTED_EDGE('',*,*,#744,.F.);
#995=ORIENTED_EDGE('',*,*,#742,.T.);
#996=ORIENTED_EDGE('',*,*,#745,.F.);
#997=ORIENTED_EDGE('',*,*,#746,.F.);
#998=ORIENTED_EDGE('',*,*,#747,.F.);
#999=ORIENTED_EDGE('',*,*,#746,.T.);
#1000=ORIENTED_EDGE('',*,*,#748,.F.);
#1001=ORIENTED_EDGE('',*,*,#749,.F.);
#1002=ORIENTED_EDGE('',*,*,#695,.F.);
#1003=ORIENTED_EDGE('',*,*,#696,.F.);
#1004=ORIENTED_EDGE('',*,*,#749,.T.);
#1005=ORIENTED_EDGE('',*,*,#750,.F.);
#1006=ORIENTED_EDGE('',*,*,#740,.F.);
#1007=ORIENTED_EDGE('',*,*,#750,.T.);
#1008=ORIENTED_EDGE('',*,*,#748,.T.);
#1009=ORIENTED_EDGE('',*,*,#745,.T.);
#1010=ORIENTED_EDGE('',*,*,#741,.T.);
#1011=ORIENTED_EDGE('',*,*,#751,.T.);
#1012=ORIENTED_EDGE('',*,*,#743,.T.);
#1013=ORIENTED_EDGE('',*,*,#744,.T.);
#1014=ORIENTED_EDGE('',*,*,#747,.T.);
#1015=ORIENTED_EDGE('',*,*,#701,.F.);
#1016=ORIENTED_EDGE('',*,*,#752,.T.);
#1017=ORIENTED_EDGE('',*,*,#753,.F.);
#1018=ORIENTED_EDGE('',*,*,#754,.F.);
#1019=ORIENTED_EDGE('',*,*,#755,.F.);
#1020=ORIENTED_EDGE('',*,*,#756,.F.);
#1021=ORIENTED_EDGE('',*,*,#754,.T.);
#1022=ORIENTED_EDGE('',*,*,#757,.F.);
#1023=ORIENTED_EDGE('',*,*,#758,.F.);
#1024=ORIENTED_EDGE('',*,*,#759,.F.);
#1025=ORIENTED_EDGE('',*,*,#758,.T.);
#1026=ORIENTED_EDGE('',*,*,#760,.F.);
#1027=ORIENTED_EDGE('',*,*,#761,.F.);
#1028=ORIENTED_EDGE('',*,*,#699,.F.);
#1029=ORIENTED_EDGE('',*,*,#700,.F.);
#1030=ORIENTED_EDGE('',*,*,#761,.T.);
#1031=ORIENTED_EDGE('',*,*,#762,.F.);
#1032=ORIENTED_EDGE('',*,*,#752,.F.);
#1033=ORIENTED_EDGE('',*,*,#762,.T.);
#1034=ORIENTED_EDGE('',*,*,#760,.T.);
#1035=ORIENTED_EDGE('',*,*,#757,.T.);
#1036=ORIENTED_EDGE('',*,*,#753,.T.);
#1037=ORIENTED_EDGE('',*,*,#763,.T.);
#1038=ORIENTED_EDGE('',*,*,#755,.T.);
#1039=ORIENTED_EDGE('',*,*,#756,.T.);
#1040=ORIENTED_EDGE('',*,*,#759,.T.);
#1041=ORIENTED_EDGE('',*,*,#764,.T.);
#1042=ORIENTED_EDGE('',*,*,#692,.F.);
#1043=ORIENTED_EDGE('',*,*,#765,.T.);
#1044=ORIENTED_EDGE('',*,*,#766,.F.);
#1045=ORIENTED_EDGE('',*,*,#767,.F.);
#1046=ORIENTED_EDGE('',*,*,#768,.T.);
#1047=ORIENTED_EDGE('',*,*,#693,.F.);
#1048=ORIENTED_EDGE('',*,*,#767,.T.);
#1049=ORIENTED_EDGE('',*,*,#769,.F.);
#1050=ORIENTED_EDGE('',*,*,#770,.F.);
#1051=ORIENTED_EDGE('',*,*,#771,.T.);
#1052=ORIENTED_EDGE('',*,*,#770,.T.);
#1053=ORIENTED_EDGE('',*,*,#772,.F.);
#1054=ORIENTED_EDGE('',*,*,#773,.F.);
#1055=ORIENTED_EDGE('',*,*,#691,.F.);
#1056=ORIENTED_EDGE('',*,*,#774,.T.);
#1057=ORIENTED_EDGE('',*,*,#773,.T.);
#1058=ORIENTED_EDGE('',*,*,#775,.F.);
#1059=ORIENTED_EDGE('',*,*,#765,.F.);
#1060=ORIENTED_EDGE('',*,*,#775,.T.);
#1061=ORIENTED_EDGE('',*,*,#772,.T.);
#1062=ORIENTED_EDGE('',*,*,#769,.T.);
#1063=ORIENTED_EDGE('',*,*,#766,.T.);
#1064=ORIENTED_EDGE('',*,*,#776,.T.);
#1065=ORIENTED_EDGE('',*,*,#768,.F.);
#1066=ORIENTED_EDGE('',*,*,#771,.F.);
#1067=ORIENTED_EDGE('',*,*,#774,.F.);
#1068=ORIENTED_EDGE('',*,*,#777,.T.);
#1069=ORIENTED_EDGE('',*,*,#711,.F.);
#1070=ORIENTED_EDGE('',*,*,#778,.T.);
#1071=ORIENTED_EDGE('',*,*,#779,.T.);
#1072=ORIENTED_EDGE('',*,*,#778,.F.);
#1073=ORIENTED_EDGE('',*,*,#710,.F.);
#1074=ORIENTED_EDGE('',*,*,#780,.T.);
#1075=ORIENTED_EDGE('',*,*,#781,.T.);
#1076=ORIENTED_EDGE('',*,*,#780,.F.);
#1077=ORIENTED_EDGE('',*,*,#709,.F.);
#1078=ORIENTED_EDGE('',*,*,#782,.T.);
#1079=ORIENTED_EDGE('',*,*,#783,.T.);
#1080=ORIENTED_EDGE('',*,*,#782,.F.);
#1081=ORIENTED_EDGE('',*,*,#708,.F.);
#1082=ORIENTED_EDGE('',*,*,#784,.T.);
#1083=ORIENTED_EDGE('',*,*,#785,.T.);
#1084=ORIENTED_EDGE('',*,*,#784,.F.);
#1085=ORIENTED_EDGE('',*,*,#786,.F.);
#1086=ORIENTED_EDGE('',*,*,#787,.T.);
#1087=ORIENTED_EDGE('',*,*,#764,.F.);
#1088=ORIENTED_EDGE('',*,*,#698,.F.);
#1089=ORIENTED_EDGE('',*,*,#751,.F.);
#1090=ORIENTED_EDGE('',*,*,#694,.F.);
#1091=ORIENTED_EDGE('',*,*,#776,.F.);
#1092=ORIENTED_EDGE('',*,*,#788,.F.);
#1093=ORIENTED_EDGE('',*,*,#789,.T.);
#1094=ORIENTED_EDGE('',*,*,#788,.T.);
#1095=ORIENTED_EDGE('',*,*,#777,.F.);
#1096=ORIENTED_EDGE('',*,*,#690,.F.);
#1097=ORIENTED_EDGE('',*,*,#790,.F.);
#1098=ORIENTED_EDGE('',*,*,#791,.F.);
#1099=ORIENTED_EDGE('',*,*,#790,.T.);
#1100=ORIENTED_EDGE('',*,*,#689,.F.);
#1101=ORIENTED_EDGE('',*,*,#739,.F.);
#1102=ORIENTED_EDGE('',*,*,#685,.F.);
#1103=ORIENTED_EDGE('',*,*,#726,.T.);
#1104=ORIENTED_EDGE('',*,*,#727,.F.);
#1105=ORIENTED_EDGE('',*,*,#720,.F.);
#1106=ORIENTED_EDGE('',*,*,#681,.F.);
#1107=ORIENTED_EDGE('',*,*,#718,.T.);
#1108=ORIENTED_EDGE('',*,*,#719,.F.);
#1109=ORIENTED_EDGE('',*,*,#712,.F.);
#1110=ORIENTED_EDGE('',*,*,#677,.F.);
#1111=ORIENTED_EDGE('',*,*,#669,.T.);
#1112=ORIENTED_EDGE('',*,*,#676,.F.);
#1113=ORIENTED_EDGE('',*,*,#671,.F.);
#1114=ORIENTED_EDGE('',*,*,#707,.F.);
#1115=ORIENTED_EDGE('',*,*,#792,.F.);
#1116=ORIENTED_EDGE('',*,*,#793,.T.);
#1117=ORIENTED_EDGE('',*,*,#792,.T.);
#1118=ORIENTED_EDGE('',*,*,#706,.F.);
#1119=ORIENTED_EDGE('',*,*,#794,.F.);
#1120=ORIENTED_EDGE('',*,*,#795,.F.);
#1121=ORIENTED_EDGE('',*,*,#794,.T.);
#1122=ORIENTED_EDGE('',*,*,#705,.F.);
#1123=ORIENTED_EDGE('',*,*,#796,.F.);
#1124=ORIENTED_EDGE('',*,*,#797,.F.);
#1125=ORIENTED_EDGE('',*,*,#665,.F.);
#1126=ORIENTED_EDGE('',*,*,#798,.T.);
#1127=ORIENTED_EDGE('',*,*,#796,.T.);
#1128=ORIENTED_EDGE('',*,*,#704,.F.);
#1129=ORIENTED_EDGE('',*,*,#799,.F.);
#1130=ORIENTED_EDGE('',*,*,#800,.F.);
#1131=ORIENTED_EDGE('',*,*,#799,.T.);
#1132=ORIENTED_EDGE('',*,*,#703,.F.);
#1133=ORIENTED_EDGE('',*,*,#801,.F.);
#1134=ORIENTED_EDGE('',*,*,#802,.T.);
#1135=ORIENTED_EDGE('',*,*,#801,.T.);
#1136=ORIENTED_EDGE('',*,*,#702,.F.);
#1137=ORIENTED_EDGE('',*,*,#763,.F.);
#1138=ORIENTED_EDGE('',*,*,#787,.F.);
#1139=ORIENTED_EDGE('',*,*,#656,.T.);
#1140=ORIENTED_EDGE('',*,*,#797,.T.);
#1141=ORIENTED_EDGE('',*,*,#798,.F.);
#1142=ORIENTED_EDGE('',*,*,#800,.T.);
#1143=ORIENTED_EDGE('',*,*,#802,.F.);
#1144=ORIENTED_EDGE('',*,*,#786,.T.);
#1145=ORIENTED_EDGE('',*,*,#789,.F.);
#1146=ORIENTED_EDGE('',*,*,#791,.T.);
#1147=ORIENTED_EDGE('',*,*,#793,.F.);
#1148=ORIENTED_EDGE('',*,*,#795,.T.);
#1149=ORIENTED_EDGE('',*,*,#662,.T.);
#1150=ORIENTED_EDGE('',*,*,#651,.T.);
#1151=ORIENTED_EDGE('',*,*,#785,.F.);
#1152=ORIENTED_EDGE('',*,*,#783,.F.);
#1153=ORIENTED_EDGE('',*,*,#781,.F.);
#1154=ORIENTED_EDGE('',*,*,#779,.F.);
#1155=PLANE('',#1294);
#1156=PLANE('',#1295);
#1157=PLANE('',#1296);
#1158=PLANE('',#1297);
#1159=PLANE('',#1298);
#1160=PLANE('',#1299);
#1161=PLANE('',#1300);
#1162=PLANE('',#1301);
#1163=PLANE('',#1302);
#1164=PLANE('',#1303);
#1165=PLANE('',#1304);
#1166=PLANE('',#1305);
#1167=PLANE('',#1306);
#1168=PLANE('',#1307);
#1169=PLANE('',#1308);
#1170=PLANE('',#1309);
#1171=PLANE('',#1310);
#1172=PLANE('',#1311);
#1173=PLANE('',#1312);
#1174=PLANE('',#1313);
#1175=PLANE('',#1314);
#1176=PLANE('',#1323);
#1177=PLANE('',#1324);
#1178=PLANE('',#1325);
#1179=PLANE('',#1326);
#1180=PLANE('',#1327);
#1181=PLANE('',#1328);
#1182=PLANE('',#1329);
#1183=PLANE('',#1330);
#1184=PLANE('',#1331);
#1185=PLANE('',#1332);
#1186=PLANE('',#1333);
#1187=PLANE('',#1334);
#1188=PLANE('',#1335);
#1189=PLANE('',#1336);
#1190=PLANE('',#1337);
#1191=PLANE('',#1338);
#1192=PLANE('',#1339);
#1193=PLANE('',#1340);
#1194=PLANE('',#1341);
#1195=PLANE('',#1342);
#1196=PLANE('',#1343);
#1197=PLANE('',#1344);
#1198=PLANE('',#1345);
#1199=PLANE('',#1346);
#1200=PLANE('',#1347);
#1201=PLANE('',#1348);
#1202=PLANE('',#1350);
#1203=PLANE('',#1351);
#1204=PLANE('',#1352);
#1205=PLANE('',#1353);
#1206=PLANE('',#1354);
#1207=PLANE('',#1355);
#1208=PLANE('',#1365);
#1209=PLANE('',#1368);
#1210=PLANE('',#1371);
#1211=PLANE('',#1374);
#1212=PLANE('',#1377);
#1213=ADVANCED_FACE('',(#55),#1155,.T.);
#1214=ADVANCED_FACE('',(#56),#1156,.T.);
#1215=ADVANCED_FACE('',(#57),#1157,.T.);
#1216=ADVANCED_FACE('',(#58),#1158,.T.);
#1217=ADVANCED_FACE('',(#59),#1159,.T.);
#1218=ADVANCED_FACE('',(#60),#1160,.T.);
#1219=ADVANCED_FACE('',(#61),#1161,.T.);
#1220=ADVANCED_FACE('',(#62),#1162,.T.);
#1221=ADVANCED_FACE('',(#63),#1163,.T.);
#1222=ADVANCED_FACE('',(#64),#1164,.T.);
#1223=ADVANCED_FACE('',(#65),#1165,.T.);
#1224=ADVANCED_FACE('',(#66),#1166,.T.);
#1225=ADVANCED_FACE('',(#67),#1167,.T.);
#1226=ADVANCED_FACE('',(#68),#1168,.T.);
#1227=ADVANCED_FACE('',(#69),#1169,.T.);
#1228=ADVANCED_FACE('',(#70),#1170,.F.);
#1229=ADVANCED_FACE('',(#71),#1171,.T.);
#1230=ADVANCED_FACE('',(#72),#1172,.T.);
#1231=ADVANCED_FACE('',(#73),#1173,.T.);
#1232=ADVANCED_FACE('',(#74),#1174,.T.);
#1233=ADVANCED_FACE('',(#75,#27,#28,#29,#30,#31,#32),#1175,.T.);
#1234=ADVANCED_FACE('',(#76),#1176,.T.);
#1235=ADVANCED_FACE('',(#77),#1177,.T.);
#1236=ADVANCED_FACE('',(#78),#1178,.T.);
#1237=ADVANCED_FACE('',(#79),#1179,.T.);
#1238=ADVANCED_FACE('',(#80),#1180,.T.);
#1239=ADVANCED_FACE('',(#81),#1181,.T.);
#1240=ADVANCED_FACE('',(#82),#1182,.T.);
#1241=ADVANCED_FACE('',(#83),#1183,.T.);
#1242=ADVANCED_FACE('',(#84),#1184,.T.);
#1243=ADVANCED_FACE('',(#85),#1185,.T.);
#1244=ADVANCED_FACE('',(#86),#1186,.T.);
#1245=ADVANCED_FACE('',(#87),#1187,.T.);
#1246=ADVANCED_FACE('',(#88),#1188,.T.);
#1247=ADVANCED_FACE('',(#89),#1189,.F.);
#1248=ADVANCED_FACE('',(#90),#1190,.T.);
#1249=ADVANCED_FACE('',(#91),#1191,.T.);
#1250=ADVANCED_FACE('',(#92),#1192,.T.);
#1251=ADVANCED_FACE('',(#93),#1193,.T.);
#1252=ADVANCED_FACE('',(#94),#1194,.T.);
#1253=ADVANCED_FACE('',(#95),#1195,.F.);
#1254=ADVANCED_FACE('',(#96),#1196,.T.);
#1255=ADVANCED_FACE('',(#97),#1197,.T.);
#1256=ADVANCED_FACE('',(#98),#1198,.T.);
#1257=ADVANCED_FACE('',(#99),#1199,.T.);
#1258=ADVANCED_FACE('',(#100),#1200,.T.);
#1259=ADVANCED_FACE('',(#101),#1201,.F.);
#1260=ADVANCED_FACE('',(#102),#1202,.T.);
#1261=ADVANCED_FACE('',(#103),#1203,.T.);
#1262=ADVANCED_FACE('',(#104),#1204,.T.);
#1263=ADVANCED_FACE('',(#105),#1205,.T.);
#1264=ADVANCED_FACE('',(#106),#1206,.T.);
#1265=ADVANCED_FACE('',(#107),#1207,.F.);
#1266=ADVANCED_FACE('',(#108),#19,.F.);
#1267=ADVANCED_FACE('',(#109),#20,.F.);
#1268=ADVANCED_FACE('',(#110),#21,.F.);
#1269=ADVANCED_FACE('',(#111),#22,.F.);
#1270=ADVANCED_FACE('',(#112),#1208,.T.);
#1271=ADVANCED_FACE('',(#113),#23,.T.);
#1272=ADVANCED_FACE('',(#114),#1209,.T.);
#1273=ADVANCED_FACE('',(#115),#24,.T.);
#1274=ADVANCED_FACE('',(#116),#1210,.T.);
#1275=ADVANCED_FACE('',(#117),#25,.T.);
#1276=ADVANCED_FACE('',(#118),#1211,.T.);
#1277=ADVANCED_FACE('',(#119),#26,.T.);
#1278=ADVANCED_FACE('',(#120,#33,#34,#35,#36),#1212,.F.);
#1279=CLOSED_SHELL('',(#1213,#1214,#1215,#1216,#1217,#1218,#1219,#1220,
#1221,#1222,#1223,#1224,#1225,#1226,#1227,#1228,#1229,#1230,#1231,#1232,
#1233,#1234,#1235,#1236,#1237,#1238,#1239,#1240,#1241,#1242,#1243,#1244,
#1245,#1246,#1247,#1248,#1249,#1250,#1251,#1252,#1253,#1254,#1255,#1256,
#1257,#1258,#1259,#1260,#1261,#1262,#1263,#1264,#1265,#1266,#1267,#1268,
#1269,#1270,#1271,#1272,#1273,#1274,#1275,#1276,#1277,#1278));
#1280=DERIVED_UNIT_ELEMENT(#1282,1.);
#1281=DERIVED_UNIT_ELEMENT(#2077,3.);
#1282=(
MASS_UNIT()
NAMED_UNIT(*)
SI_UNIT(.KILO.,.GRAM.)
);
#1283=DERIVED_UNIT((#1280,#1281));
#1284=MEASURE_REPRESENTATION_ITEM('density measure',
POSITIVE_RATIO_MEASURE(7850.),#1283);
#1285=PROPERTY_DEFINITION_REPRESENTATION(#1290,#1287);
#1286=PROPERTY_DEFINITION_REPRESENTATION(#1291,#1288);
#1287=REPRESENTATION('material name',(#1289),#2074);
#1288=REPRESENTATION('density',(#1284),#2074);
#1289=DESCRIPTIVE_REPRESENTATION_ITEM('Steel','Steel');
#1290=PROPERTY_DEFINITION('material property','material name',#2089);
#1291=PROPERTY_DEFINITION('material property','density of part',#2089);
#1292=AXIS2_PLACEMENT_3D('placement',#1711,#1379,#1380);
#1293=AXIS2_PLACEMENT_3D('placement',#1712,#1381,#1382);
#1294=AXIS2_PLACEMENT_3D('',#1713,#1383,#1384);
#1295=AXIS2_PLACEMENT_3D('',#1722,#1389,#1390);
#1296=AXIS2_PLACEMENT_3D('',#1728,#1394,#1395);
#1297=AXIS2_PLACEMENT_3D('',#1734,#1399,#1400);
#1298=AXIS2_PLACEMENT_3D('',#1737,#1403,#1404);
#1299=AXIS2_PLACEMENT_3D('',#1738,#1405,#1406);
#1300=AXIS2_PLACEMENT_3D('',#1747,#1411,#1412);
#1301=AXIS2_PLACEMENT_3D('',#1753,#1416,#1417);
#1302=AXIS2_PLACEMENT_3D('',#1759,#1421,#1422);
#1303=AXIS2_PLACEMENT_3D('',#1762,#1425,#1426);
#1304=AXIS2_PLACEMENT_3D('',#1763,#1427,#1428);
#1305=AXIS2_PLACEMENT_3D('',#1772,#1433,#1434);
#1306=AXIS2_PLACEMENT_3D('',#1780,#1439,#1440);
#1307=AXIS2_PLACEMENT_3D('',#1786,#1444,#1445);
#1308=AXIS2_PLACEMENT_3D('',#1791,#1449,#1450);
#1309=AXIS2_PLACEMENT_3D('',#1792,#1451,#1452);
#1310=AXIS2_PLACEMENT_3D('',#1794,#1454,#1455);
#1311=AXIS2_PLACEMENT_3D('',#1803,#1460,#1461);
#1312=AXIS2_PLACEMENT_3D('',#1812,#1466,#1467);
#1313=AXIS2_PLACEMENT_3D('',#1815,#1470,#1471);
#1314=AXIS2_PLACEMENT_3D('',#1817,#1473,#1474);
#1315=AXIS2_PLACEMENT_3D('',#1845,#1488,#1489);
#1316=AXIS2_PLACEMENT_3D('',#1869,#1501,#1502);
#1317=AXIS2_PLACEMENT_3D('',#1873,#1504,#1505);
#1318=AXIS2_PLACEMENT_3D('',#1877,#1507,#1508);
#1319=AXIS2_PLACEMENT_3D('',#1880,#1510,#1511);
#1320=AXIS2_PLACEMENT_3D('',#1882,#1512,#1513);
#1321=AXIS2_PLACEMENT_3D('',#1884,#1514,#1515);
#1322=AXIS2_PLACEMENT_3D('',#1886,#1516,#1517);
#1323=AXIS2_PLACEMENT_3D('',#1887,#1518,#1519);
#1324=AXIS2_PLACEMENT_3D('',#1893,#1523,#1524);
#1325=AXIS2_PLACEMENT_3D('',#1897,#1527,#1528);
#1326=AXIS2_PLACEMENT_3D('',#1901,#1531,#1532);
#1327=AXIS2_PLACEMENT_3D('',#1903,#1534,#1535);
#1328=AXIS2_PLACEMENT_3D('',#1909,#1539,#1540);
#1329=AXIS2_PLACEMENT_3D('',#1913,#1543,#1544);
#1330=AXIS2_PLACEMENT_3D('',#1917,#1547,#1548);
#1331=AXIS2_PLACEMENT_3D('',#1919,#1550,#1551);
#1332=AXIS2_PLACEMENT_3D('',#1928,#1556,#1557);
#1333=AXIS2_PLACEMENT_3D('',#1933,#1561,#1562);
#1334=AXIS2_PLACEMENT_3D('',#1937,#1565,#1566);
#1335=AXIS2_PLACEMENT_3D('',#1940,#1569,#1570);
#1336=AXIS2_PLACEMENT_3D('',#1941,#1571,#1572);
#1337=AXIS2_PLACEMENT_3D('',#1943,#1574,#1575);
#1338=AXIS2_PLACEMENT_3D('',#1951,#1580,#1581);
#1339=AXIS2_PLACEMENT_3D('',#1957,#1585,#1586);
#1340=AXIS2_PLACEMENT_3D('',#1962,#1590,#1591);
#1341=AXIS2_PLACEMENT_3D('',#1964,#1593,#1594);
#1342=AXIS2_PLACEMENT_3D('',#1965,#1595,#1596);
#1343=AXIS2_PLACEMENT_3D('',#1967,#1598,#1599);
#1344=AXIS2_PLACEMENT_3D('',#1975,#1604,#1605);
#1345=AXIS2_PLACEMENT_3D('',#1981,#1609,#1610);
#1346=AXIS2_PLACEMENT_3D('',#1986,#1614,#1615);
#1347=AXIS2_PLACEMENT_3D('',#1988,#1617,#1618);
#1348=AXIS2_PLACEMENT_3D('',#1989,#1619,#1620);
#1349=AXIS2_PLACEMENT_3D('',#1991,#1621,#1622);
#1350=AXIS2_PLACEMENT_3D('',#1993,#1624,#1625);
#1351=AXIS2_PLACEMENT_3D('',#1999,#1629,#1630);
#1352=AXIS2_PLACEMENT_3D('',#2005,#1634,#1635);
#1353=AXIS2_PLACEMENT_3D('',#2011,#1639,#1640);
#1354=AXIS2_PLACEMENT_3D('',#2014,#1643,#1644);
#1355=AXIS2_PLACEMENT_3D('',#2015,#1645,#1646);
#1356=AXIS2_PLACEMENT_3D('',#2018,#1648,#1649);
#1357=AXIS2_PLACEMENT_3D('',#2019,#1650,#1651);
#1358=AXIS2_PLACEMENT_3D('',#2022,#1653,#1654);
#1359=AXIS2_PLACEMENT_3D('',#2023,#1655,#1656);
#1360=AXIS2_PLACEMENT_3D('',#2026,#1658,#1659);
#1361=AXIS2_PLACEMENT_3D('',#2027,#1660,#1661);
#1362=AXIS2_PLACEMENT_3D('',#2030,#1663,#1664);
#1363=AXIS2_PLACEMENT_3D('',#2031,#1665,#1666);
#1364=AXIS2_PLACEMENT_3D('',#2034,#1668,#1669);
#1365=AXIS2_PLACEMENT_3D('',#2035,#1670,#1671);
#1366=AXIS2_PLACEMENT_3D('',#2041,#1675,#1676);
#1367=AXIS2_PLACEMENT_3D('',#2043,#1677,#1678);
#1368=AXIS2_PLACEMENT_3D('',#2045,#1680,#1681);
#1369=AXIS2_PLACEMENT_3D('',#2049,#1684,#1685);
#1370=AXIS2_PLACEMENT_3D('',#2051,#1686,#1687);
#1371=AXIS2_PLACEMENT_3D('',#2053,#1689,#1690);
#1372=AXIS2_PLACEMENT_3D('',#2058,#1694,#1695);
#1373=AXIS2_PLACEMENT_3D('',#2060,#1696,#1697);
#1374=AXIS2_PLACEMENT_3D('',#2062,#1699,#1700);
#1375=AXIS2_PLACEMENT_3D('',#2066,#1703,#1704);
#1376=AXIS2_PLACEMENT_3D('',#2067,#1705,#1706);
#1377=AXIS2_PLACEMENT_3D('',#2068,#1707,#1708);
#1378=AXIS2_PLACEMENT_3D('',#2069,#1709,#1710);
#1379=DIRECTION('axis',(0.,0.,1.));
#1380=DIRECTION('refdir',(1.,0.,0.));
#1381=DIRECTION('axis',(0.,0.,1.));
#1382=DIRECTION('refdir',(1.,0.,0.));
#1383=DIRECTION('center_axis',(-1.,0.,0.));
#1384=DIRECTION('ref_axis',(0.,0.,1.));
#1385=DIRECTION('',(0.,0.,-1.));
#1386=DIRECTION('',(0.,1.,0.));
#1387=DIRECTION('',(0.,0.,1.));
#1388=DIRECTION('',(0.,1.,0.));
#1389=DIRECTION('center_axis',(0.,0.,-1.));
#1390=DIRECTION('ref_axis',(-1.,0.,0.));
#1391=DIRECTION('',(1.,0.,0.));
#1392=DIRECTION('',(-1.,0.,0.));
#1393=DIRECTION('',(0.,1.,0.));
#1394=DIRECTION('center_axis',(1.,0.,0.));
#1395=DIRECTION('ref_axis',(0.,0.,-1.));
#1396=DIRECTION('',(0.,0.,1.));
#1397=DIRECTION('',(0.,0.,-1.));
#1398=DIRECTION('',(0.,1.,0.));
#1399=DIRECTION('center_axis',(0.,0.,1.));
#1400=DIRECTION('ref_axis',(1.,0.,0.));
#1401=DIRECTION('',(-1.,0.,0.));
#1402=DIRECTION('',(1.,0.,0.));
#1403=DIRECTION('center_axis',(0.,1.,0.));
#1404=DIRECTION('ref_axis',(0.,0.,1.));
#1405=DIRECTION('center_axis',(-1.,0.,0.));
#1406=DIRECTION('ref_axis',(0.,0.,1.));
#1407=DIRECTION('',(0.,0.,-1.));
#1408=DIRECTION('',(0.,1.,0.));
#1409=DIRECTION('',(0.,0.,1.));
#1410=DIRECTION('',(0.,1.,0.));
#1411=DIRECTION('center_axis',(0.,0.,-1.));
#1412=DIRECTION('ref_axis',(-1.,0.,0.));
#1413=DIRECTION('',(1.,0.,0.));
#1414=DIRECTION('',(-1.,0.,0.));
#1415=DIRECTION('',(0.,1.,0.));
#1416=DIRECTION('center_axis',(1.,0.,0.));
#1417=DIRECTION('ref_axis',(0.,0.,-1.));
#1418=DIRECTION('',(0.,0.,1.));
#1419=DIRECTION('',(0.,0.,-1.));
#1420=DIRECTION('',(0.,1.,0.));
#1421=DIRECTION('center_axis',(0.,0.,1.));
#1422=DIRECTION('ref_axis',(1.,0.,0.));
#1423=DIRECTION('',(-1.,0.,0.));
#1424=DIRECTION('',(1.,0.,0.));
#1425=DIRECTION('center_axis',(0.,1.,0.));
#1426=DIRECTION('ref_axis',(0.,0.,1.));
#1427=DIRECTION('center_axis',(0.,0.,-1.));
#1428=DIRECTION('ref_axis',(1.,0.,0.));
#1429=DIRECTION('',(-1.,0.,0.));
#1430=DIRECTION('',(0.,-1.,0.));
#1431=DIRECTION('',(1.,0.,0.));
#1432=DIRECTION('',(0.,-1.,0.));
#1433=DIRECTION('center_axis',(-1.,0.,0.));
#1434=DIRECTION('ref_axis',(0.,0.,-1.));
#1435=DIRECTION('',(0.,0.,-1.));
#1436=DIRECTION('',(0.,0.,1.));
#1437=DIRECTION('',(0.,0.,-1.));
#1438=DIRECTION('',(0.,-1.,0.));
#1439=DIRECTION('center_axis',(0.,0.,1.));
#1440=DIRECTION('ref_axis',(-1.,0.,0.));
#1441=DIRECTION('',(-1.,0.,0.));
#1442=DIRECTION('',(-1.,0.,0.));
#1443=DIRECTION('',(0.,-1.,0.));
#1444=DIRECTION('center_axis',(1.,0.,0.));
#1445=DIRECTION('ref_axis',(0.,0.,1.));
#1446=DIRECTION('',(0.,0.,-1.));
#1447=DIRECTION('',(0.,0.,1.));
#1448=DIRECTION('',(0.,0.,1.));
#1449=DIRECTION('center_axis',(0.,-1.,0.));
#1450=DIRECTION('ref_axis',(0.,0.,-1.));
#1451=DIRECTION('center_axis',(0.,-1.,0.));
#1452=DIRECTION('ref_axis',(1.,0.,0.));
#1453=DIRECTION('',(-1.,0.,0.));
#1454=DIRECTION('center_axis',(0.,0.,-1.));
#1455=DIRECTION('ref_axis',(-1.,0.,0.));
#1456=DIRECTION('',(1.,0.,0.));
#1457=DIRECTION('',(0.,1.,0.));
#1458=DIRECTION('',(-1.,0.,0.));
#1459=DIRECTION('',(0.,1.,0.));
#1460=DIRECTION('center_axis',(0.,0.,1.));
#1461=DIRECTION('ref_axis',(1.,0.,0.));
#1462=DIRECTION('',(-1.,0.,0.));
#1463=DIRECTION('',(0.,1.,0.));
#1464=DIRECTION('',(1.,0.,0.));
#1465=DIRECTION('',(0.,1.,0.));
#1466=DIRECTION('center_axis',(-1.,0.,0.));
#1467=DIRECTION('ref_axis',(0.,0.,1.));
#1468=DIRECTION('',(0.,0.,-1.));
#1469=DIRECTION('',(0.,0.,1.));
#1470=DIRECTION('center_axis',(0.,1.,0.));
#1471=DIRECTION('ref_axis',(0.,0.,1.));
#1472=DIRECTION('',(0.,0.,-1.));
#1473=DIRECTION('center_axis',(0.,1.,0.));
#1474=DIRECTION('ref_axis',(1.,0.,0.));
#1475=DIRECTION('',(0.,0.,-1.));
#1476=DIRECTION('',(-1.,0.,0.));
#1477=DIRECTION('',(0.,0.,-1.));
#1478=DIRECTION('',(1.,0.,0.));
#1479=DIRECTION('',(0.,0.,-1.));
#1480=DIRECTION('',(-1.,0.,0.));
#1481=DIRECTION('',(0.,0.,-1.));
#1482=DIRECTION('',(1.,0.,0.));
#1483=DIRECTION('',(0.,0.,-1.));
#1484=DIRECTION('',(-1.,0.,0.));
#1485=DIRECTION('',(0.,0.,-1.));
#1486=DIRECTION('',(1.,0.,0.));
#1487=DIRECTION('',(0.,0.,-1.));
#1488=DIRECTION('center_axis',(0.,1.,0.));
#1489=DIRECTION('ref_axis',(1.,0.,-1.85037170770859E-15));
#1490=DIRECTION('',(0.,0.,1.));
#1491=DIRECTION('',(-1.,0.,0.));
#1492=DIRECTION('',(0.,0.,-1.));
#1493=DIRECTION('',(-1.,0.,-2.22044604925031E-17));
#1494=DIRECTION('',(0.,0.,1.));
#1495=DIRECTION('',(-1.,0.,0.));
#1496=DIRECTION('',(0.,0.,-1.));
#1497=DIRECTION('',(-1.,0.,-2.22044604925031E-17));
#1498=DIRECTION('',(0.,0.,1.));
#1499=DIRECTION('',(-1.,0.,0.));
#1500=DIRECTION('',(0.,0.,-1.));
#1501=DIRECTION('center_axis',(0.,1.,0.));
#1502=DIRECTION('ref_axis',(5.55111512312579E-16,0.,-1.));
#1503=DIRECTION('',(-2.10801840118701E-17,0.,1.));
#1504=DIRECTION('center_axis',(0.,1.,0.));
#1505=DIRECTION('ref_axis',(-1.,0.,5.92118946466745E-15));
#1506=DIRECTION('',(1.,0.,0.));
#1507=DIRECTION('center_axis',(0.,1.,0.));
#1508=DIRECTION('ref_axis',(8.88178419700118E-15,0.,1.));
#1509=DIRECTION('',(0.,0.,-1.));
#1510=DIRECTION('center_axis',(0.,-1.,0.));
#1511=DIRECTION('ref_axis',(1.,0.,0.));
#1512=DIRECTION('center_axis',(0.,-1.,0.));
#1513=DIRECTION('ref_axis',(1.,0.,0.));
#1514=DIRECTION('center_axis',(0.,-1.,0.));
#1515=DIRECTION('ref_axis',(1.,0.,0.));
#1516=DIRECTION('center_axis',(0.,-1.,0.));
#1517=DIRECTION('ref_axis',(1.,0.,0.));
#1518=DIRECTION('center_axis',(0.,0.,1.));
#1519=DIRECTION('ref_axis',(1.,0.,0.));
#1520=DIRECTION('',(0.,1.,0.));
#1521=DIRECTION('',(1.,0.,0.));
#1522=DIRECTION('',(0.,1.,0.));
#1523=DIRECTION('center_axis',(-1.,0.,0.));
#1524=DIRECTION('ref_axis',(0.,0.,1.));
#1525=DIRECTION('',(0.,0.,1.));
#1526=DIRECTION('',(0.,1.,0.));
#1527=DIRECTION('center_axis',(0.,0.,-1.));
#1528=DIRECTION('ref_axis',(-1.,0.,0.));
#1529=DIRECTION('',(-1.,0.,0.));
#1530=DIRECTION('',(0.,1.,0.));
#1531=DIRECTION('center_axis',(0.,1.,0.));
#1532=DIRECTION('ref_axis',(0.,0.,1.));
#1533=DIRECTION('',(0.,0.,-1.));
#1534=DIRECTION('center_axis',(0.,0.,1.));
#1535=DIRECTION('ref_axis',(1.,0.,0.));
#1536=DIRECTION('',(0.,1.,0.));
#1537=DIRECTION('',(1.,0.,0.));
#1538=DIRECTION('',(0.,1.,0.));
#1539=DIRECTION('center_axis',(-1.,0.,0.));
#1540=DIRECTION('ref_axis',(0.,0.,1.));
#1541=DIRECTION('',(0.,0.,1.));
#1542=DIRECTION('',(0.,1.,0.));
#1543=DIRECTION('center_axis',(0.,0.,-1.));
#1544=DIRECTION('ref_axis',(-1.,0.,0.));
#1545=DIRECTION('',(-1.,0.,0.));
#1546=DIRECTION('',(0.,1.,0.));
#1547=DIRECTION('center_axis',(0.,1.,0.));
#1548=DIRECTION('ref_axis',(0.,0.,1.));
#1549=DIRECTION('',(0.,0.,-1.));
#1550=DIRECTION('center_axis',(1.,0.,0.));
#1551=DIRECTION('ref_axis',(0.,0.,-1.));
#1552=DIRECTION('',(0.,0.,1.));
#1553=DIRECTION('',(0.,1.,0.));
#1554=DIRECTION('',(0.,0.,-1.));
#1555=DIRECTION('',(0.,1.,0.));
#1556=DIRECTION('center_axis',(0.,0.,1.));
#1557=DIRECTION('ref_axis',(1.,0.,0.));
#1558=DIRECTION('',(-1.,0.,0.));
#1559=DIRECTION('',(1.,0.,0.));
#1560=DIRECTION('',(0.,1.,0.));
#1561=DIRECTION('center_axis',(-1.,0.,0.));
#1562=DIRECTION('ref_axis',(0.,0.,1.));
#1563=DIRECTION('',(0.,0.,1.));
#1564=DIRECTION('',(0.,1.,0.));
#1565=DIRECTION('center_axis',(0.,0.,-1.));
#1566=DIRECTION('ref_axis',(-1.,0.,0.));
#1567=DIRECTION('',(-1.,0.,0.));
#1568=DIRECTION('',(1.,0.,0.));
#1569=DIRECTION('center_axis',(0.,1.,0.));
#1570=DIRECTION('ref_axis',(0.,0.,1.));
#1571=DIRECTION('center_axis',(0.,1.,0.));
#1572=DIRECTION('ref_axis',(-1.,0.,0.));
#1573=DIRECTION('',(0.,0.,-1.));
#1574=DIRECTION('center_axis',(-1.,0.,0.));
#1575=DIRECTION('ref_axis',(0.,0.,1.));
#1576=DIRECTION('',(0.,1.,0.));
#1577=DIRECTION('',(0.,0.,1.));
#1578=DIRECTION('',(0.,1.,0.));
#1579=DIRECTION('',(0.,0.,-1.));
#1580=DIRECTION('center_axis',(0.,0.,-1.));
#1581=DIRECTION('ref_axis',(-1.,0.,0.));
#1582=DIRECTION('',(1.,0.,0.));
#1583=DIRECTION('',(-1.,0.,0.));
#1584=DIRECTION('',(0.,1.,0.));
#1585=DIRECTION('center_axis',(1.,0.,0.));
#1586=DIRECTION('ref_axis',(0.,0.,-1.));
#1587=DIRECTION('',(0.,0.,1.));
#1588=DIRECTION('',(0.,0.,-1.));
#1589=DIRECTION('',(0.,1.,0.));
#1590=DIRECTION('center_axis',(0.,0.,1.));
#1591=DIRECTION('ref_axis',(1.,0.,0.));
#1592=DIRECTION('',(1.,0.,0.));
#1593=DIRECTION('center_axis',(0.,1.,0.));
#1594=DIRECTION('ref_axis',(0.,0.,1.));
#1595=DIRECTION('center_axis',(0.,1.,0.));
#1596=DIRECTION('ref_axis',(-1.,0.,0.));
#1597=DIRECTION('',(-1.,0.,-2.22044604925031E-17));
#1598=DIRECTION('center_axis',(-1.,0.,0.));
#1599=DIRECTION('ref_axis',(0.,0.,1.));
#1600=DIRECTION('',(0.,1.,0.));
#1601=DIRECTION('',(0.,0.,1.));
#1602=DIRECTION('',(0.,1.,0.));
#1603=DIRECTION('',(0.,0.,-1.));
#1604=DIRECTION('center_axis',(0.,0.,-1.));
#1605=DIRECTION('ref_axis',(-1.,0.,0.));
#1606=DIRECTION('',(1.,0.,0.));
#1607=DIRECTION('',(-1.,0.,0.));
#1608=DIRECTION('',(0.,1.,0.));
#1609=DIRECTION('center_axis',(1.,0.,0.));
#1610=DIRECTION('ref_axis',(0.,0.,-1.));
#1611=DIRECTION('',(0.,0.,1.));
#1612=DIRECTION('',(0.,0.,-1.));
#1613=DIRECTION('',(0.,1.,0.));
#1614=DIRECTION('center_axis',(0.,0.,1.));
#1615=DIRECTION('ref_axis',(1.,0.,0.));
#1616=DIRECTION('',(1.,0.,0.));
#1617=DIRECTION('center_axis',(0.,1.,0.));
#1618=DIRECTION('ref_axis',(0.,0.,1.));
#1619=DIRECTION('center_axis',(0.,1.,0.));
#1620=DIRECTION('ref_axis',(-1.,0.,0.));
#1621=DIRECTION('center_axis',(0.,1.,0.));
#1622=DIRECTION('ref_axis',(5.55111512312579E-16,0.,-1.));
#1623=DIRECTION('',(-1.,0.,-2.22044604925031E-17));
#1624=DIRECTION('center_axis',(0.,0.,1.));
#1625=DIRECTION('ref_axis',(1.,0.,0.));
#1626=DIRECTION('',(0.,1.,0.));
#1627=DIRECTION('',(1.,0.,0.));
#1628=DIRECTION('',(0.,1.,0.));
#1629=DIRECTION('center_axis',(-1.,0.,0.));
#1630=DIRECTION('ref_axis',(0.,0.,1.));
#1631=DIRECTION('',(0.,0.,1.));
#1632=DIRECTION('',(0.,0.,1.));
#1633=DIRECTION('',(0.,1.,0.));
#1634=DIRECTION('center_axis',(0.,0.,-1.));
#1635=DIRECTION('ref_axis',(-1.,0.,0.));
#1636=DIRECTION('',(-1.,0.,0.));
#1637=DIRECTION('',(-1.,0.,0.));
#1638=DIRECTION('',(0.,1.,0.));
#1639=DIRECTION('center_axis',(1.,0.,0.));
#1640=DIRECTION('ref_axis',(0.,0.,-1.));
#1641=DIRECTION('',(0.,0.,-1.));
#1642=DIRECTION('',(0.,0.,-1.));
#1643=DIRECTION('center_axis',(0.,1.,0.));
#1644=DIRECTION('ref_axis',(0.,0.,1.));
#1645=DIRECTION('center_axis',(0.,1.,0.));
#1646=DIRECTION('ref_axis',(-1.,0.,0.));
#1647=DIRECTION('',(-1.,0.,-2.22044604925031E-17));
#1648=DIRECTION('center_axis',(0.,1.,0.));
#1649=DIRECTION('ref_axis',(1.,0.,-1.85037170770859E-15));
#1650=DIRECTION('center_axis',(0.,1.,0.));
#1651=DIRECTION('ref_axis',(1.,0.,0.));
#1652=DIRECTION('',(0.,-1.,0.));
#1653=DIRECTION('center_axis',(0.,-1.,0.));
#1654=DIRECTION('ref_axis',(1.,0.,0.));
#1655=DIRECTION('center_axis',(0.,1.,0.));
#1656=DIRECTION('ref_axis',(1.,0.,0.));
#1657=DIRECTION('',(0.,-1.,0.));
#1658=DIRECTION('center_axis',(0.,-1.,0.));
#1659=DIRECTION('ref_axis',(1.,0.,0.));
#1660=DIRECTION('center_axis',(0.,1.,0.));
#1661=DIRECTION('ref_axis',(1.,0.,0.));
#1662=DIRECTION('',(0.,-1.,0.));
#1663=DIRECTION('center_axis',(0.,-1.,0.));
#1664=DIRECTION('ref_axis',(1.,0.,0.));
#1665=DIRECTION('center_axis',(0.,1.,0.));
#1666=DIRECTION('ref_axis',(1.,0.,0.));
#1667=DIRECTION('',(0.,-1.,0.));
#1668=DIRECTION('center_axis',(0.,-1.,0.));
#1669=DIRECTION('ref_axis',(1.,0.,0.));
#1670=DIRECTION('center_axis',(2.22044604925031E-17,0.,-1.));
#1671=DIRECTION('ref_axis',(-1.,0.,-2.22044604925031E-17));
#1672=DIRECTION('',(1.,0.,2.22044604925031E-17));
#1673=DIRECTION('',(0.,1.,0.));
#1674=DIRECTION('',(0.,1.,0.));
#1675=DIRECTION('center_axis',(0.,1.,0.));
#1676=DIRECTION('ref_axis',(1.,0.,-1.85037170770859E-15));
#1677=DIRECTION('center_axis',(0.,1.,0.));
#1678=DIRECTION('ref_axis',(1.,0.,-1.85037170770859E-15));
#1679=DIRECTION('',(0.,1.,0.));
#1680=DIRECTION('center_axis',(1.,0.,0.));
#1681=DIRECTION('ref_axis',(0.,0.,-1.));
#1682=DIRECTION('',(0.,0.,1.));
#1683=DIRECTION('',(0.,1.,0.));
#1684=DIRECTION('center_axis',(0.,1.,0.));
#1685=DIRECTION('ref_axis',(8.88178419700118E-15,0.,1.));
#1686=DIRECTION('center_axis',(0.,1.,0.));
#1687=DIRECTION('ref_axis',(8.88178419700118E-15,0.,1.));
#1688=DIRECTION('',(0.,1.,0.));
#1689=DIRECTION('center_axis',(0.,0.,1.));
#1690=DIRECTION('ref_axis',(1.,0.,0.));
#1691=DIRECTION('',(-1.,0.,0.));
#1692=DIRECTION('',(0.,1.,0.));
#1693=DIRECTION('',(-1.,0.,0.));
#1694=DIRECTION('center_axis',(0.,1.,0.));
#1695=DIRECTION('ref_axis',(-1.,0.,5.92118946466745E-15));
#1696=DIRECTION('center_axis',(0.,1.,0.));
#1697=DIRECTION('ref_axis',(-1.,0.,5.92118946466745E-15));
#1698=DIRECTION('',(0.,1.,0.));
#1699=DIRECTION('center_axis',(-1.,0.,-2.10801840118701E-17));
#1700=DIRECTION('ref_axis',(-2.10801840118701E-17,0.,1.));
#1701=DIRECTION('',(2.10801840118701E-17,0.,-1.));
#1702=DIRECTION('',(0.,1.,0.));
#1703=DIRECTION('center_axis',(0.,1.,0.));
#1704=DIRECTION('ref_axis',(5.55111512312579E-16,0.,-1.));
#1705=DIRECTION('center_axis',(0.,1.,0.));
#1706=DIRECTION('ref_axis',(5.55111512312579E-16,0.,-1.));
#1707=DIRECTION('center_axis',(0.,1.,0.));
#1708=DIRECTION('ref_axis',(1.,0.,0.));
#1709=DIRECTION('',(0.,0.,1.));
#1710=DIRECTION('',(1.,0.,0.));
#1711=CARTESIAN_POINT('',(0.,0.,0.));
#1712=CARTESIAN_POINT('',(0.,0.,0.));
#1713=CARTESIAN_POINT('Origin',(0.999999999999999,1.5,27.1));
#1714=CARTESIAN_POINT('',(0.999999999999999,1.5,77.9));
#1715=CARTESIAN_POINT('',(0.999999999999999,1.5,27.1));
#1716=CARTESIAN_POINT('',(1.,1.5,34.8));
#1717=CARTESIAN_POINT('',(0.999999999999999,10.25,77.9));
#1718=CARTESIAN_POINT('',(0.999999999999999,1.5,77.9));
#1719=CARTESIAN_POINT('',(0.999999999999999,10.25,27.1));
#1720=CARTESIAN_POINT('',(0.999999999999999,10.25,77.9));
#1721=CARTESIAN_POINT('',(0.999999999999999,1.5,27.1));
#1722=CARTESIAN_POINT('Origin',(7.,1.5,27.1));
#1723=CARTESIAN_POINT('',(7.,1.5,27.1));
#1724=CARTESIAN_POINT('',(17.5,1.5,27.1));
#1725=CARTESIAN_POINT('',(7.,10.25,27.1));
#1726=CARTESIAN_POINT('',(0.999999999999999,10.25,27.1));
#1727=CARTESIAN_POINT('',(7.,1.5,27.1));
#1728=CARTESIAN_POINT('Origin',(7.,1.5,77.9));
#1729=CARTESIAN_POINT('',(7.,1.5,77.9));
#1730=CARTESIAN_POINT('',(7.,1.5,60.2));
#1731=CARTESIAN_POINT('',(7.,10.25,77.9));
#1732=CARTESIAN_POINT('',(7.,10.25,27.1));
#1733=CARTESIAN_POINT('',(7.,1.5,77.9));
#1734=CARTESIAN_POINT('Origin',(0.999999999999999,1.5,77.9));
#1735=CARTESIAN_POINT('',(14.5,1.5,77.9));
#1736=CARTESIAN_POINT('',(7.,10.25,77.9));
#1737=CARTESIAN_POINT('Origin',(4.,10.25,52.5));
#1738=CARTESIAN_POINT('Origin',(16.9,1.5,79.85));
#1739=CARTESIAN_POINT('',(16.9,1.5,82.35));
#1740=CARTESIAN_POINT('',(16.9,1.5,79.85));
#1741=CARTESIAN_POINT('',(16.9,1.5,61.175));
#1742=CARTESIAN_POINT('',(16.9,6.75,82.35));
#1743=CARTESIAN_POINT('',(16.9,1.5,82.35));
#1744=CARTESIAN_POINT('',(16.9,6.75,79.85));
#1745=CARTESIAN_POINT('',(16.9,6.75,82.35));
#1746=CARTESIAN_POINT('',(16.9,1.5,79.85));
#1747=CARTESIAN_POINT('Origin',(39.1,1.5,79.85));
#1748=CARTESIAN_POINT('',(39.1,1.5,79.85));
#1749=CARTESIAN_POINT('',(33.55,1.5,79.85));
#1750=CARTESIAN_POINT('',(39.1,6.75,79.85));
#1751=CARTESIAN_POINT('',(16.9,6.75,79.85));
#1752=CARTESIAN_POINT('',(39.1,1.5,79.85));
#1753=CARTESIAN_POINT('Origin',(39.1,1.5,82.35));
#1754=CARTESIAN_POINT('',(39.1,1.5,82.35));
#1755=CARTESIAN_POINT('',(39.1,1.5,62.425));
#1756=CARTESIAN_POINT('',(39.1,6.75,82.35));
#1757=CARTESIAN_POINT('',(39.1,6.75,79.85));
#1758=CARTESIAN_POINT('',(39.1,1.5,82.35));
#1759=CARTESIAN_POINT('Origin',(16.9,1.5,82.35));
#1760=CARTESIAN_POINT('',(22.45,1.5,82.35));
#1761=CARTESIAN_POINT('',(39.1,6.75,82.35));
#1762=CARTESIAN_POINT('Origin',(28.,6.75,81.1));
#1763=CARTESIAN_POINT('Origin',(19.9,0.,70.4));
#1764=CARTESIAN_POINT('',(34.5,0.,70.4));
#1765=CARTESIAN_POINT('',(19.9,0.,70.4));
#1766=CARTESIAN_POINT('',(23.95,0.,70.4));
#1767=CARTESIAN_POINT('',(34.5,-1.35,70.4));
#1768=CARTESIAN_POINT('',(34.5,0.,70.4));
#1769=CARTESIAN_POINT('',(19.9,-1.35,70.4));
#1770=CARTESIAN_POINT('',(19.9,-1.35,70.4));
#1771=CARTESIAN_POINT('',(19.9,0.,70.4));
#1772=CARTESIAN_POINT('Origin',(19.9,0.,87.42));
#1773=CARTESIAN_POINT('',(19.9,0.,87.42));
#1774=CARTESIAN_POINT('',(19.9,0.,85.));
#1775=CARTESIAN_POINT('',(19.9,0.,87.42));
#1776=CARTESIAN_POINT('',(19.9,0.,64.96));
#1777=CARTESIAN_POINT('',(19.9,-1.35,87.42));
#1778=CARTESIAN_POINT('',(19.9,-1.35,87.42));
#1779=CARTESIAN_POINT('',(19.9,0.,87.42));
#1780=CARTESIAN_POINT('Origin',(34.5,0.,87.42));
#1781=CARTESIAN_POINT('',(34.5,0.,87.42));
#1782=CARTESIAN_POINT('',(34.5,0.,87.42));
#1783=CARTESIAN_POINT('',(34.5,-1.35,87.42));
#1784=CARTESIAN_POINT('',(34.5,-1.35,87.42));
#1785=CARTESIAN_POINT('',(34.5,0.,87.42));
#1786=CARTESIAN_POINT('Origin',(34.5,0.,70.4));
#1787=CARTESIAN_POINT('',(34.5,0.,85.));
#1788=CARTESIAN_POINT('',(34.5,0.,56.45));
#1789=CARTESIAN_POINT('',(34.5,0.,70.4));
#1790=CARTESIAN_POINT('',(34.5,-1.35,70.4));
#1791=CARTESIAN_POINT('Origin',(27.2,-1.35,78.91));
#1792=CARTESIAN_POINT('Origin',(27.2,0.,78.91));
#1793=CARTESIAN_POINT('',(53.,0.,85.));
#1794=CARTESIAN_POINT('Origin',(56.,1.5,70.65));
#1795=CARTESIAN_POINT('',(50.5,1.5,70.65));
#1796=CARTESIAN_POINT('',(56.,1.5,70.65));
#1797=CARTESIAN_POINT('',(42.,1.5,70.65));
#1798=CARTESIAN_POINT('',(50.5,3.95,70.65));
#1799=CARTESIAN_POINT('',(50.5,1.5,70.65));
#1800=CARTESIAN_POINT('',(56.,3.95,70.65));
#1801=CARTESIAN_POINT('',(56.1,3.95,70.65));
#1802=CARTESIAN_POINT('',(56.,1.5,70.65));
#1803=CARTESIAN_POINT('Origin',(50.5,1.5,78.15));
#1804=CARTESIAN_POINT('',(56.,1.5,78.15));
#1805=CARTESIAN_POINT('',(50.5,1.5,78.15));
#1806=CARTESIAN_POINT('',(39.25,1.5,78.15));
#1807=CARTESIAN_POINT('',(56.,3.95,78.15));
#1808=CARTESIAN_POINT('',(56.,1.5,78.15));
#1809=CARTESIAN_POINT('',(50.5,3.95,78.15));
#1810=CARTESIAN_POINT('',(50.5,3.95,78.15));
#1811=CARTESIAN_POINT('',(50.5,1.5,78.15));
#1812=CARTESIAN_POINT('Origin',(50.5,1.5,70.65));
#1813=CARTESIAN_POINT('',(50.5,1.5,56.575));
#1814=CARTESIAN_POINT('',(50.5,3.95,70.65));
#1815=CARTESIAN_POINT('Origin',(53.25,3.95,74.4));
#1816=CARTESIAN_POINT('',(56.,3.95,82.));
#1817=CARTESIAN_POINT('Origin',(28.,1.5,42.5));
#1818=CARTESIAN_POINT('',(56.,1.5,60.5));
#1819=CARTESIAN_POINT('',(56.,1.5,3.));
#1820=CARTESIAN_POINT('',(44.35,1.5,60.5));
#1821=CARTESIAN_POINT('',(36.175,1.5,60.5));
#1822=CARTESIAN_POINT('',(44.35,1.5,45.5));
#1823=CARTESIAN_POINT('',(44.35,1.5,44.));
#1824=CARTESIAN_POINT('',(56.,1.5,45.5));
#1825=CARTESIAN_POINT('',(42.,1.5,45.5));
#1826=CARTESIAN_POINT('',(56.,1.5,42.));
#1827=CARTESIAN_POINT('',(56.,1.5,3.));
#1828=CARTESIAN_POINT('',(33.85,1.5,42.));
#1829=CARTESIAN_POINT('',(30.925,1.5,42.));
#1830=CARTESIAN_POINT('',(33.85,1.5,38.));
#1831=CARTESIAN_POINT('',(33.85,1.5,40.25));
#1832=CARTESIAN_POINT('',(56.,1.5,38.));
#1833=CARTESIAN_POINT('',(42.,1.5,38.));
#1834=CARTESIAN_POINT('',(56.,1.5,34.5));
#1835=CARTESIAN_POINT('',(56.,1.5,3.));
#1836=CARTESIAN_POINT('',(43.75,1.5,34.5));
#1837=CARTESIAN_POINT('',(35.875,1.5,34.5));
#1838=CARTESIAN_POINT('',(43.75,1.5,28.5));
#1839=CARTESIAN_POINT('',(43.75,1.5,35.5));
#1840=CARTESIAN_POINT('',(56.,1.5,28.5));
#1841=CARTESIAN_POINT('',(43.25,1.5,28.5));
#1842=CARTESIAN_POINT('',(56.,1.5,3.));
#1843=CARTESIAN_POINT('',(56.,1.5,3.));
#1844=CARTESIAN_POINT('',(53.65,1.5,0.0712630708785006));
#1845=CARTESIAN_POINT('Origin',(53.,1.5,3.));
#1846=CARTESIAN_POINT('',(53.65,1.5,19.15));
#1847=CARTESIAN_POINT('',(53.65,1.5,30.825));
#1848=CARTESIAN_POINT('',(37.75,1.5,19.15));
#1849=CARTESIAN_POINT('',(32.875,1.5,19.15));
#1850=CARTESIAN_POINT('',(37.75,1.5,2.77555756156289E-16));
#1851=CARTESIAN_POINT('',(37.75,1.5,20.2));
#1852=CARTESIAN_POINT('',(33.55,1.5,0.));
#1853=CARTESIAN_POINT('',(3.,1.5,-5.55111512312578E-16));
#1854=CARTESIAN_POINT('',(33.55,1.5,14.9));
#1855=CARTESIAN_POINT('',(33.55,1.5,28.7));
#1856=CARTESIAN_POINT('',(20.45,1.5,14.9));
#1857=CARTESIAN_POINT('',(24.225,1.5,14.9));
#1858=CARTESIAN_POINT('',(20.45,1.5,0.));
#1859=CARTESIAN_POINT('',(20.45,1.5,20.2));
#1860=CARTESIAN_POINT('',(15.55,1.5,-2.77555756156289E-16));
#1861=CARTESIAN_POINT('',(3.,1.5,-5.55111512312578E-16));
#1862=CARTESIAN_POINT('',(15.55,1.5,14.9));
#1863=CARTESIAN_POINT('',(15.55,1.5,28.7));
#1864=CARTESIAN_POINT('',(2.44999999999999,1.5,14.9));
#1865=CARTESIAN_POINT('',(15.225,1.5,14.9));
#1866=CARTESIAN_POINT('',(2.44999999999999,1.5,0.0508475793882762));
#1867=CARTESIAN_POINT('',(2.44999999999999,1.5,20.2));
#1868=CARTESIAN_POINT('',(0.,1.5,3.00000000000002));
#1869=CARTESIAN_POINT('Origin',(3.,1.5,3.));
#1870=CARTESIAN_POINT('',(0.,1.5,82.));
#1871=CARTESIAN_POINT('',(-1.66533453693773E-15,1.5,82.));
#1872=CARTESIAN_POINT('',(3.,1.5,85.));
#1873=CARTESIAN_POINT('Origin',(3.00000000000002,1.5,82.));
#1874=CARTESIAN_POINT('',(53.,1.5,85.));
#1875=CARTESIAN_POINT('',(53.,1.5,85.));
#1876=CARTESIAN_POINT('',(56.,1.5,82.));
#1877=CARTESIAN_POINT('Origin',(53.,1.5,82.));
#1878=CARTESIAN_POINT('',(56.,1.5,3.));
#1879=CARTESIAN_POINT('',(51.125,1.5,81.5));
#1880=CARTESIAN_POINT('Origin',(52.5,1.5,81.5));
#1881=CARTESIAN_POINT('',(2.12499999999999,1.5,81.5));
#1882=CARTESIAN_POINT('Origin',(3.5,1.5,81.5));
#1883=CARTESIAN_POINT('',(2.12499999999999,1.5,23.5));
#1884=CARTESIAN_POINT('Origin',(3.5,1.5,23.5));
#1885=CARTESIAN_POINT('',(51.125,1.5,23.5));
#1886=CARTESIAN_POINT('Origin',(52.5,1.5,23.5));
#1887=CARTESIAN_POINT('Origin',(44.35,1.5,60.5));
#1888=CARTESIAN_POINT('',(56.,8.,60.5));
#1889=CARTESIAN_POINT('',(56.,1.5,60.5));
#1890=CARTESIAN_POINT('',(44.35,8.,60.5));
#1891=CARTESIAN_POINT('',(56.1,8.,60.5));
#1892=CARTESIAN_POINT('',(44.35,1.5,60.5));
#1893=CARTESIAN_POINT('Origin',(44.35,1.5,45.5));
#1894=CARTESIAN_POINT('',(44.35,8.,45.5));
#1895=CARTESIAN_POINT('',(44.35,8.,60.5));
#1896=CARTESIAN_POINT('',(44.35,1.5,45.5));
#1897=CARTESIAN_POINT('Origin',(56.,1.5,45.5));
#1898=CARTESIAN_POINT('',(56.,8.,45.5));
#1899=CARTESIAN_POINT('',(44.35,8.,45.5));
#1900=CARTESIAN_POINT('',(56.,1.5,45.5));
#1901=CARTESIAN_POINT('Origin',(50.175,8.,53.));
#1902=CARTESIAN_POINT('',(56.,8.,82.));
#1903=CARTESIAN_POINT('Origin',(33.85,1.5,42.));
#1904=CARTESIAN_POINT('',(56.,7.,42.));
#1905=CARTESIAN_POINT('',(56.,1.5,42.));
#1906=CARTESIAN_POINT('',(33.85,7.,42.));
#1907=CARTESIAN_POINT('',(56.,7.,42.));
#1908=CARTESIAN_POINT('',(33.85,1.5,42.));
#1909=CARTESIAN_POINT('Origin',(33.85,1.5,38.));
#1910=CARTESIAN_POINT('',(33.85,7.,38.));
#1911=CARTESIAN_POINT('',(33.85,7.,42.));
#1912=CARTESIAN_POINT('',(33.85,1.5,38.));
#1913=CARTESIAN_POINT('Origin',(56.,1.5,38.));
#1914=CARTESIAN_POINT('',(56.,7.,38.));
#1915=CARTESIAN_POINT('',(33.85,7.,38.));
#1916=CARTESIAN_POINT('',(56.,1.5,38.));
#1917=CARTESIAN_POINT('Origin',(44.925,7.,40.));
#1918=CARTESIAN_POINT('',(56.,7.,38.));
#1919=CARTESIAN_POINT('Origin',(58.5,1.5,34.5));
#1920=CARTESIAN_POINT('',(58.5,1.5,28.5));
#1921=CARTESIAN_POINT('',(58.5,1.5,34.5));
#1922=CARTESIAN_POINT('',(58.5,1.5,28.5));
#1923=CARTESIAN_POINT('',(58.5,7.5,28.5));
#1924=CARTESIAN_POINT('',(58.5,1.5,28.5));
#1925=CARTESIAN_POINT('',(58.5,7.5,34.5));
#1926=CARTESIAN_POINT('',(58.5,7.5,28.5));
#1927=CARTESIAN_POINT('',(58.5,1.5,34.5));
#1928=CARTESIAN_POINT('Origin',(43.75,1.5,34.5));
#1929=CARTESIAN_POINT('',(58.5,1.5,34.5));
#1930=CARTESIAN_POINT('',(43.75,7.5,34.5));
#1931=CARTESIAN_POINT('',(58.5,7.5,34.5));
#1932=CARTESIAN_POINT('',(43.75,1.5,34.5));
#1933=CARTESIAN_POINT('Origin',(43.75,1.5,28.5));
#1934=CARTESIAN_POINT('',(43.75,7.5,28.5));
#1935=CARTESIAN_POINT('',(43.75,7.5,34.5));
#1936=CARTESIAN_POINT('',(43.75,1.5,28.5));
#1937=CARTESIAN_POINT('Origin',(58.5,1.5,28.5));
#1938=CARTESIAN_POINT('',(43.75,7.5,28.5));
#1939=CARTESIAN_POINT('',(43.75,1.5,28.5));
#1940=CARTESIAN_POINT('Origin',(51.125,7.5,31.5));
#1941=CARTESIAN_POINT('Origin',(51.125,1.5,31.5));
#1942=CARTESIAN_POINT('',(56.,1.5,3.));
#1943=CARTESIAN_POINT('Origin',(20.45,1.5,-2.1));
#1944=CARTESIAN_POINT('',(20.45,17.5,14.9));
#1945=CARTESIAN_POINT('',(20.45,1.5,14.9));
#1946=CARTESIAN_POINT('',(20.45,17.5,-2.1));
#1947=CARTESIAN_POINT('',(20.45,17.5,14.9));
#1948=CARTESIAN_POINT('',(20.45,1.5,-2.1));
#1949=CARTESIAN_POINT('',(20.45,1.5,-2.1));
#1950=CARTESIAN_POINT('',(20.45,1.5,14.9));
#1951=CARTESIAN_POINT('Origin',(33.55,1.5,-2.1));
#1952=CARTESIAN_POINT('',(33.55,1.5,-2.1));
#1953=CARTESIAN_POINT('',(20.45,1.5,-2.1));
#1954=CARTESIAN_POINT('',(33.55,17.5,-2.1));
#1955=CARTESIAN_POINT('',(20.45,17.5,-2.1));
#1956=CARTESIAN_POINT('',(33.55,1.5,-2.1));
#1957=CARTESIAN_POINT('Origin',(33.55,1.5,14.9));
#1958=CARTESIAN_POINT('',(33.55,1.5,-2.1));
#1959=CARTESIAN_POINT('',(33.55,17.5,14.9));
#1960=CARTESIAN_POINT('',(33.55,17.5,-2.1));
#1961=CARTESIAN_POINT('',(33.55,1.5,14.9));
#1962=CARTESIAN_POINT('Origin',(20.45,1.5,14.9));
#1963=CARTESIAN_POINT('',(33.55,17.5,14.9));
#1964=CARTESIAN_POINT('Origin',(27.,17.5,6.4));
#1965=CARTESIAN_POINT('Origin',(27.,1.5,6.4));
#1966=CARTESIAN_POINT('',(3.,1.5,-5.55111512312578E-16));
#1967=CARTESIAN_POINT('Origin',(2.44999999999999,1.5,-2.1));
#1968=CARTESIAN_POINT('',(2.44999999999999,17.5,14.9));
#1969=CARTESIAN_POINT('',(2.44999999999999,1.5,14.9));
#1970=CARTESIAN_POINT('',(2.44999999999999,17.5,-2.1));
#1971=CARTESIAN_POINT('',(2.44999999999999,17.5,14.9));
#1972=CARTESIAN_POINT('',(2.44999999999999,1.5,-2.1));
#1973=CARTESIAN_POINT('',(2.44999999999999,1.5,-2.1));
#1974=CARTESIAN_POINT('',(2.44999999999999,1.5,14.9));
#1975=CARTESIAN_POINT('Origin',(15.55,1.5,-2.1));
#1976=CARTESIAN_POINT('',(15.55,1.5,-2.1));
#1977=CARTESIAN_POINT('',(2.44999999999999,1.5,-2.1));
#1978=CARTESIAN_POINT('',(15.55,17.5,-2.1));
#1979=CARTESIAN_POINT('',(2.44999999999999,17.5,-2.1));
#1980=CARTESIAN_POINT('',(15.55,1.5,-2.1));
#1981=CARTESIAN_POINT('Origin',(15.55,1.5,14.9));
#1982=CARTESIAN_POINT('',(15.55,1.5,-2.1));
#1983=CARTESIAN_POINT('',(15.55,17.5,14.9));
#1984=CARTESIAN_POINT('',(15.55,17.5,-2.1));
#1985=CARTESIAN_POINT('',(15.55,1.5,14.9));
#1986=CARTESIAN_POINT('Origin',(2.44999999999999,1.5,14.9));
#1987=CARTESIAN_POINT('',(15.55,17.5,14.9));
#1988=CARTESIAN_POINT('Origin',(8.99999999999999,17.5,6.4));
#1989=CARTESIAN_POINT('Origin',(8.99999999999999,1.5,6.4));
#1990=CARTESIAN_POINT('',(3.,1.5,0.));
#1991=CARTESIAN_POINT('Origin',(3.,1.5,3.));
#1992=CARTESIAN_POINT('',(3.,1.5,-5.55111512312578E-16));
#1993=CARTESIAN_POINT('Origin',(37.75,1.5,19.15));
#1994=CARTESIAN_POINT('',(53.65,15.,19.15));
#1995=CARTESIAN_POINT('',(53.65,1.5,19.15));
#1996=CARTESIAN_POINT('',(37.75,15.,19.15));
#1997=CARTESIAN_POINT('',(37.75,15.,19.15));
#1998=CARTESIAN_POINT('',(37.75,1.5,19.15));
#1999=CARTESIAN_POINT('Origin',(37.75,1.5,-2.1));
#2000=CARTESIAN_POINT('',(37.75,1.5,-2.1));
#2001=CARTESIAN_POINT('',(37.75,1.5,-2.1));
#2002=CARTESIAN_POINT('',(37.75,15.,-2.1));
#2003=CARTESIAN_POINT('',(37.75,15.,-2.1));
#2004=CARTESIAN_POINT('',(37.75,1.5,-2.1));
#2005=CARTESIAN_POINT('Origin',(53.65,1.5,-2.1));
#2006=CARTESIAN_POINT('',(53.65,1.5,-2.1));
#2007=CARTESIAN_POINT('',(53.65,1.5,-2.1));
#2008=CARTESIAN_POINT('',(53.65,15.,-2.1));
#2009=CARTESIAN_POINT('',(53.65,15.,-2.1));
#2010=CARTESIAN_POINT('',(53.65,1.5,-2.1));
#2011=CARTESIAN_POINT('Origin',(53.65,1.5,19.15));
#2012=CARTESIAN_POINT('',(53.65,1.5,19.15));
#2013=CARTESIAN_POINT('',(53.65,15.,19.15));
#2014=CARTESIAN_POINT('Origin',(45.7,15.,8.525));
#2015=CARTESIAN_POINT('Origin',(45.7,1.5,8.525));
#2016=CARTESIAN_POINT('',(53.,1.5,0.));
#2017=CARTESIAN_POINT('',(3.,1.5,-5.55111512312578E-16));
#2018=CARTESIAN_POINT('Origin',(53.,1.5,3.));
#2019=CARTESIAN_POINT('Origin',(52.5,0.,23.5));
#2020=CARTESIAN_POINT('',(51.125,0.,23.5));
#2021=CARTESIAN_POINT('',(51.125,0.,23.5));
#2022=CARTESIAN_POINT('Origin',(52.5,0.,23.5));
#2023=CARTESIAN_POINT('Origin',(3.5,0.,23.5));
#2024=CARTESIAN_POINT('',(2.125,0.,23.5));
#2025=CARTESIAN_POINT('',(2.125,0.,23.5));
#2026=CARTESIAN_POINT('Origin',(3.5,0.,23.5));
#2027=CARTESIAN_POINT('Origin',(3.5,0.,81.5));
#2028=CARTESIAN_POINT('',(2.125,0.,81.5));
#2029=CARTESIAN_POINT('',(2.125,0.,81.5));
#2030=CARTESIAN_POINT('Origin',(3.5,0.,81.5));
#2031=CARTESIAN_POINT('Origin',(52.5,0.,81.5));
#2032=CARTESIAN_POINT('',(51.125,0.,81.5));
#2033=CARTESIAN_POINT('',(51.125,0.,81.5));
#2034=CARTESIAN_POINT('Origin',(52.5,0.,81.5));
#2035=CARTESIAN_POINT('Origin',(53.,0.,5.55111512312578E-16));
#2036=CARTESIAN_POINT('',(3.,0.,-5.55111512312578E-16));
#2037=CARTESIAN_POINT('',(53.,0.,-2.22044604925031E-15));
#2038=CARTESIAN_POINT('',(3.,0.,-5.55111512312578E-16));
#2039=CARTESIAN_POINT('',(3.,0.,-5.55111512312578E-16));
#2040=CARTESIAN_POINT('',(53.,0.,-2.22044604925031E-15));
#2041=CARTESIAN_POINT('Origin',(53.,0.,3.));
#2042=CARTESIAN_POINT('',(56.,0.,3.));
#2043=CARTESIAN_POINT('Origin',(53.,0.,3.));
#2044=CARTESIAN_POINT('',(56.,0.,3.));
#2045=CARTESIAN_POINT('Origin',(56.,0.,82.));
#2046=CARTESIAN_POINT('',(56.,0.,82.));
#2047=CARTESIAN_POINT('',(56.,0.,3.));
#2048=CARTESIAN_POINT('',(56.,0.,82.));
#2049=CARTESIAN_POINT('Origin',(53.,0.,82.));
#2050=CARTESIAN_POINT('',(53.,0.,85.));
#2051=CARTESIAN_POINT('Origin',(53.,0.,82.));
#2052=CARTESIAN_POINT('',(53.,0.,85.));
#2053=CARTESIAN_POINT('Origin',(3.,0.,85.));
#2054=CARTESIAN_POINT('',(53.,0.,85.));
#2055=CARTESIAN_POINT('',(3.,0.,85.));
#2056=CARTESIAN_POINT('',(3.,0.,85.));
#2057=CARTESIAN_POINT('',(53.,0.,85.));
#2058=CARTESIAN_POINT('Origin',(3.00000000000002,0.,82.));
#2059=CARTESIAN_POINT('',(-1.66533453693773E-15,0.,82.));
#2060=CARTESIAN_POINT('Origin',(3.00000000000002,0.,82.));
#2061=CARTESIAN_POINT('',(-1.66533453693773E-15,0.,82.));
#2062=CARTESIAN_POINT('Origin',(0.,0.,3.00000000000002));
#2063=CARTESIAN_POINT('',(0.,0.,3.00000000000002));
#2064=CARTESIAN_POINT('',(-1.66533453693773E-15,0.,82.));
#2065=CARTESIAN_POINT('',(0.,0.,3.00000000000002));
#2066=CARTESIAN_POINT('Origin',(3.,0.,3.));
#2067=CARTESIAN_POINT('Origin',(3.,0.,3.));
#2068=CARTESIAN_POINT('Origin',(28.,0.,42.5));
#2069=CARTESIAN_POINT('',(0.,0.,0.));
#2070=UNCERTAINTY_MEASURE_WITH_UNIT(LENGTH_MEASURE(0.01),#2076,
'DISTANCE_ACCURACY_VALUE',
'Maximum model space distance between geometric entities at asserted c
onnectivities');
#2071=UNCERTAINTY_MEASURE_WITH_UNIT(LENGTH_MEASURE(0.01),#2076,
'DISTANCE_ACCURACY_VALUE',
'Maximum model space distance between geometric entities at asserted c
onnectivities');
#2072=UNCERTAINTY_MEASURE_WITH_UNIT(LENGTH_MEASURE(0.01),#2076,
'DISTANCE_ACCURACY_VALUE',
'Maximum model space distance between geometric entities at asserted c
onnectivities');
#2073=(
GEOMETRIC_REPRESENTATION_CONTEXT(3)
GLOBAL_UNCERTAINTY_ASSIGNED_CONTEXT((#2070))
GLOBAL_UNIT_ASSIGNED_CONTEXT((#2076,#2079,#2078))
REPRESENTATION_CONTEXT('','3D')
);
#2074=(
GEOMETRIC_REPRESENTATION_CONTEXT(3)
GLOBAL_UNCERTAINTY_ASSIGNED_CONTEXT((#2071))
GLOBAL_UNIT_ASSIGNED_CONTEXT((#2076,#2079,#2078))
REPRESENTATION_CONTEXT('','3D')
);
#2075=(
GEOMETRIC_REPRESENTATION_CONTEXT(3)
GLOBAL_UNCERTAINTY_ASSIGNED_CONTEXT((#2072))
GLOBAL_UNIT_ASSIGNED_CONTEXT((#2076,#2079,#2078))
REPRESENTATION_CONTEXT('','3D')
);
#2076=(
LENGTH_UNIT()
NAMED_UNIT(*)
SI_UNIT(.MILLI.,.METRE.)
);
#2077=(
LENGTH_UNIT()
NAMED_UNIT(*)
SI_UNIT($,.METRE.)
);
#2078=(
NAMED_UNIT(*)
SI_UNIT($,.STERADIAN.)
SOLID_ANGLE_UNIT()
);
#2079=(
NAMED_UNIT(*)
PLANE_ANGLE_UNIT()
SI_UNIT($,.RADIAN.)
);
#2080=SHAPE_DEFINITION_REPRESENTATION(#2082,#2085);
#2081=SHAPE_DEFINITION_REPRESENTATION(#2083,#2086);
#2082=PRODUCT_DEFINITION_SHAPE('',$,#2088);
#2083=PRODUCT_DEFINITION_SHAPE('',$,#2089);
#2084=PRODUCT_DEFINITION_SHAPE($,$,#14);
#2085=SHAPE_REPRESENTATION('',(#1292,#1378),#2073);
#2086=SHAPE_REPRESENTATION('',(#1293),#2074);
#2087=PRODUCT_DEFINITION_CONTEXT('part definition',#2095,'design');
#2088=PRODUCT_DEFINITION('Rough Pi Model','Rough Pi Model v5',#2090,#2087);
#2089=PRODUCT_DEFINITION('Raspberry Pi Master','Raspberry Pi Master',#2091,
#2087);
#2090=PRODUCT_DEFINITION_FORMATION('',$,#2097);
#2091=PRODUCT_DEFINITION_FORMATION('',$,#2098);
#2092=PRODUCT_RELATED_PRODUCT_CATEGORY('Rough Pi Model v5',
'Rough Pi Model v5',(#2097));
#2093=PRODUCT_RELATED_PRODUCT_CATEGORY('Raspberry Pi Master',
'Raspberry Pi Master',(#2098));
#2094=APPLICATION_PROTOCOL_DEFINITION('international standard',
'automotive_design',2009,#2095);
#2095=APPLICATION_CONTEXT(
'Core Data for Automotive Mechanical Design Process');
#2096=PRODUCT_CONTEXT('part definition',#2095,'mechanical');
#2097=PRODUCT('Rough Pi Model','Rough Pi Model v5',$,(#2096));
#2098=PRODUCT('Raspberry Pi Master','Raspberry Pi Master',$,(#2096));
#2099=PRESENTATION_STYLE_ASSIGNMENT((#2101));
#2100=PRESENTATION_STYLE_ASSIGNMENT((#2102));
#2101=SURFACE_STYLE_USAGE(.BOTH.,#2103);
#2102=SURFACE_STYLE_USAGE(.BOTH.,#2104);
#2103=SURFACE_SIDE_STYLE('',(#2105));
#2104=SURFACE_SIDE_STYLE('',(#2106));
#2105=SURFACE_STYLE_FILL_AREA(#2107);
#2106=SURFACE_STYLE_FILL_AREA(#2108);
#2107=FILL_AREA_STYLE('Steel - Satin',(#2109));
#2108=FILL_AREA_STYLE('Plastic - Translucent Matte (Green)',(#2110));
#2109=FILL_AREA_STYLE_COLOUR('Steel - Satin',#2111);
#2110=FILL_AREA_STYLE_COLOUR('Plastic - Translucent Matte (Green)',#2112);
#2111=COLOUR_RGB('Steel - Satin',0.627450980392157,0.627450980392157,0.627450980392157);
#2112=COLOUR_RGB('Plastic - Translucent Matte (Green)',0.266666666666667,
0.588235294117647,0.282352941176471);
ENDSEC;
END-ISO-10303-21;
